<svg xmlns="http://www.w3.org/2000/svg" width="73" height="26" viewBox="0 0 73 26">
    <g fill="#0A3FC1" fill-rule="evenodd">
        <path d="M0 5.635V0h9.93c3.18 0 5.757 2.61 5.757 5.828 0 1.711-.729 3.25-1.89 4.316C17.83 10.474 21 13.892 21 18.06 21 22.445 17.488 26 13.157 26H0v-5.764h2.783c3.983 0 7.211-3.268 7.211-7.3s-3.228-7.3-7.21-7.3H0z"/>
        <g>
            <path d="M2.64 13.856H.405c-.154 0-.278-.127-.278-.282 0-.156.124-.282.278-.282H2.64c.994.004 1.973-.234 2.857-.694.137-.07.304-.016.374.123.07.138.016.308-.121.379-.962.5-2.029.759-3.11.756zM6.592 12.517c-.123.004-.233-.074-.272-.193-.04-.118.003-.248.104-.32.387-.295.739-.634 1.049-1.011 1.606-1.957 1.909-4.694.769-6.962C7.41 2.385 5.912 1.186 4.139.745 3.953.7 3.76.662 3.573.633c-.31-.046-.62-.07-.933-.07H.405C.25.564.127.438.127.283.127.126.25 0 .405 0H2.64c.339 0 .677.025 1.012.076.208.03.415.073.616.128.648.158 1.27.411 1.845.753 1.12.669 2.03 1.646 2.625 2.817.495.976.753 2.057.75 3.154.002 1.62-.558 3.188-1.583 4.431-.336.41-.718.78-1.138 1.102-.05.038-.112.058-.175.056z" transform="translate(0 6.02)"/>
            <path d="M2.64 12.66H.405c-.147-.01-.261-.134-.261-.283 0-.149.114-.273.26-.283H2.64c1.161.006 2.289-.395 3.192-1.134.883-.714 1.506-1.706 1.771-2.818.229-.957.185-1.96-.126-2.893-.038-.097-.02-.206.046-.285.067-.08.17-.115.27-.094.1.022.181.097.21.197.201.597.304 1.224.303 1.856 0 .455-.052.91-.158 1.352-.102.429-.254.844-.451 1.237-.368.73-.884 1.374-1.516 1.887-1.005.814-2.254 1.258-3.54 1.26zM6.67 3.598c-.079 0-.154-.035-.207-.095-.25-.286-.529-.544-.833-.769-.87-.638-1.916-.98-2.99-.978H.405c-.154 0-.278-.126-.278-.282 0-.155.124-.282.278-.282H2.64c1.191-.003 2.352.378 3.316 1.087.337.247.647.53.923.846.073.083.091.202.046.303-.045.101-.145.166-.254.166v.004z" transform="translate(0 6.02)"/>
            <path d="M2.64 11.46H.405c-.154 0-.278-.126-.278-.281 0-.156.124-.282.278-.282H2.64c.154 0 .278.126.278.282 0 .155-.124.281-.278.281zM3.775 11.304c-.14.001-.258-.103-.277-.243-.02-.14.067-.272.201-.31.417-.118.812-.306 1.168-.556C6.19 9.27 6.823 7.62 6.46 6.032c-.363-1.587-1.647-2.789-3.238-3.031-.101-.011-.188-.078-.227-.173-.039-.096-.023-.205.041-.285.064-.08.167-.118.267-.1.471.07.928.218 1.352.435.684.35 1.268.871 1.697 1.514.263.393.462.825.592 1.28.116.41.174.832.174 1.257 0 .655-.14 1.302-.413 1.896-.55 1.206-1.595 2.109-2.86 2.469-.022.006-.046.01-.07.01zM1.585 2.959H.405c-.154 0-.278-.127-.278-.282 0-.156.124-.282.278-.282h1.18c.154 0 .278.126.278.282 0 .155-.124.282-.278.282zM1.412 10.23H.4c-.154 0-.279-.126-.279-.282 0-.156.125-.282.279-.282h1.012c.154 0 .278.126.278.282 0 .156-.124.282-.278.282z" transform="translate(0 6.02)"/>
            <path d="M2.838 10.223c-.154.005-.283-.117-.288-.273-.005-.155.116-.285.27-.29 1.423-.093 2.53-1.289 2.53-2.732 0-.156.125-.282.278-.282.154 0 .279.126.279.282.002 1.741-1.335 3.184-3.052 3.294l-.017.001zM5.457 6.216c-.118 0-.224-.077-.263-.19-.126-.37-.33-.707-.597-.989-.21-.222-.455-.408-.726-.548-.38-.198-.803-.3-1.23-.3H.404c-.154 0-.278-.126-.278-.281 0-.156.124-.282.278-.282H2.64c.892 0 1.746.37 2.36 1.025.322.34.568.746.72 1.19.025.071.021.149-.011.216s-.09.119-.16.143c-.029.011-.06.016-.092.016zM2.64 9.122H.405c-.154 0-.278-.126-.278-.282 0-.156.124-.282.278-.282H2.64c.154 0 .278.126.278.282 0 .156-.124.282-.278.282z" transform="translate(0 6.02)"/>
            <path d="M3.795 8.72c-.118 0-.223-.077-.262-.19-.038-.114-.002-.24.091-.314.396-.307.628-.783.627-1.288 0-.433-.17-.848-.472-1.153-.302-.306-.712-.478-1.139-.478-.154 0-.278-.126-.278-.281 0-.156.124-.282.278-.282.674.001 1.309.32 1.719.861.41.541.548 1.245.375 1.904-.123.46-.39.867-.76 1.162-.05.04-.114.06-.179.059zM1.794 5.297H.404c-.153 0-.277-.126-.277-.281 0-.156.124-.282.278-.282h1.391c.1 0 .192.053.241.14.05.088.05.195 0 .282-.05.088-.141.141-.24.141h-.003z" transform="translate(0 6.02)"/>
            <path d="M2.181 6.66C1.575 6.658.969 6.615.368 6.532.22 6.508.116 6.368.136 6.217c.02-.152.156-.26.306-.243.842.118 1.694.147 2.542.087.1-.01.198.036.256.119.058.083.068.191.026.283-.042.093-.13.156-.23.165-.02.003-.339.032-.855.032zM.405 7.904c-.14-.002-.258-.11-.273-.251-.016-.141.075-.272.212-.305.701-.17 1.423-.234 2.143-.19.153.016.264.155.249.31-.016.155-.153.267-.306.251-.66-.036-1.321.024-1.964.178-.02.005-.04.007-.061.007z" transform="translate(0 6.02)"/>
        </g>
        <path fill-rule="nonzero" d="M32.355 10.065c2.346 0 4.28 2.163 4.28 4.967S34.702 20 32.356 20c-1.2 0-2.077-.433-2.669-1.148v.885H27V6.565h2.686v4.647c.592-.715 1.47-1.147 2.67-1.147zm-.537 7.263c1.236 0 2.131-.884 2.131-2.296 0-1.411-.895-2.295-2.131-2.295-1.236 0-2.132.884-2.132 2.295 0 1.412.896 2.296 2.132 2.296zm8.683-1.167c.34.979 1.165 1.317 2.15 1.317.734 0 1.36-.3 1.719-.715l2.15 1.299C45.641 19.342 44.315 20 42.614 20c-3.063 0-4.961-2.164-4.961-4.968s1.934-4.967 4.764-4.967c2.615 0 4.549 2.126 4.549 4.967 0 .395-.036.772-.108 1.13h-6.358zm-.053-2.107h3.85c-.286-1.092-1.092-1.487-1.898-1.487-1.021 0-1.702.527-1.952 1.487zm13.34-3.99c2.346 0 4.28 2.164 4.28 4.968S56.134 20 53.788 20c-1.2 0-2.078-.433-2.669-1.148v.885h-2.686V6.565h2.686v4.647c.591-.715 1.469-1.147 2.669-1.147zm-.537 7.264c1.235 0 2.13-.884 2.13-2.296 0-1.411-.895-2.295-2.13-2.295-1.236 0-2.132.884-2.132 2.295 0 1.412.896 2.296 2.132 2.296zm6.283 2.409V6h2.687v13.737h-2.687zm7-3.576c.34.979 1.165 1.317 2.15 1.317.734 0 1.36-.3 1.72-.715l2.148 1.299C71.675 19.342 70.35 20 68.648 20c-3.063 0-4.961-2.164-4.961-4.968s1.934-4.967 4.764-4.967c2.615 0 4.549 2.126 4.549 4.967 0 .395-.036.772-.107 1.13h-6.358zm-.053-2.107h3.85c-.286-1.092-1.092-1.487-1.898-1.487-1.02 0-1.701.527-1.952 1.487z"/>
    </g>
</svg>
