<svg xmlns="http://www.w3.org/2000/svg" width="98" height="98" viewBox="0 0 98 98">
    <defs>
        <filter id="r8yemntcwa" width="152.4%" height="152.4%" x="-26.2%" y="-26.2%" filterUnits="objectBoundingBox">
            <feOffset dy="3" in="SourceAlpha" result="shadowOffsetOuter1"/>
            <feGaussianBlur in="shadowOffsetOuter1" result="shadowBlurOuter1" stdDeviation="4"/>
            <feColorMatrix in="shadowBlurOuter1" result="shadowMatrixOuter1" values="0 0 0 0 0 0 0 0 0 0 0 0 0 0 0 0 0 0 0.3 0"/>
            <feMerge>
                <feMergeNode in="shadowMatrixOuter1"/>
                <feMergeNode in="SourceGraphic"/>
            </feMerge>
        </filter>
    </defs>
    <g fill="none" fill-rule="evenodd" filter="url(#r8yemntcwa)" transform="translate(8 5)">
        <circle cx="41" cy="41" r="41" fill="#0A3FC1"/>
        <g fill="#FFF" transform="translate(20 24)">
            <path fill-rule="nonzero" d="M40.603 5.297c-.839-.903-1.997-1.437-3.314-1.437h-6.627v-.082c0-1.027-.4-2.012-1.078-2.67C28.904.412 27.987 0 26.989 0H15.01c-1.038 0-1.956.41-2.635 1.109-.678.698-1.078 1.642-1.078 2.669v.082H4.711c-1.317 0-2.475.534-3.314 1.437C.56 6.16 0 7.391 0 8.705v20.45c0 1.355.519 2.545 1.397 3.408C2.236 33.425 3.433 34 4.711 34h32.578c1.317 0 2.475-.534 3.314-1.437C41.44 31.7 42 30.469 42 29.155V8.705c0-1.355-.519-2.546-1.397-3.408zm-.679 23.858h-.04c0 .739-.28 1.396-.759 1.888-.479.493-1.117.78-1.836.78H4.711c-.719 0-1.357-.287-1.836-.78-.48-.492-.759-1.15-.759-1.888V8.705c0-.739.28-1.396.759-1.889.479-.492 1.117-.78 1.836-.78h7.705c.6 0 1.078-.493 1.078-1.108V3.737c0-.452.16-.863.44-1.15.279-.287.678-.452 1.117-.452H26.99c.439 0 .838.165 1.117.452.28.287.44.698.44 1.15v1.19c0 .616.479 1.11 1.078 1.11h7.705c.719 0 1.357.287 1.836.78.48.492.759 1.15.759 1.888v20.45z"/>
            <path fill-rule="nonzero" d="M20.512 9c-2.7 0-5.162 1.138-6.91 2.927-1.786 1.83-2.858 4.309-2.858 7.073 0 2.764 1.112 5.285 2.859 7.073C15.39 27.903 17.812 29 20.512 29s5.161-1.138 6.908-2.927c1.787-1.83 2.86-4.309 2.86-7.073 0-2.764-1.113-5.285-2.86-7.073C25.673 10.138 23.212 9 20.512 9zm5.4 15.57c-1.39 1.381-3.296 2.276-5.4 2.276-2.105 0-4.01-.895-5.4-2.277-1.39-1.423-2.224-3.374-2.224-5.528 0-2.155.874-4.106 2.224-5.529 1.39-1.423 3.295-2.276 5.4-2.276 2.104 0 4.01.894 5.4 2.276 1.39 1.423 2.223 3.374 2.223 5.529.04 2.154-.834 4.105-2.223 5.528z"/>
            <ellipse cx="35.163" cy="11" rx="1.953" ry="2"/>
        </g>
    </g>
</svg>
