<svg xmlns="http://www.w3.org/2000/svg" width="98" height="98" viewBox="0 0 98 98">
    <defs>
        <filter id="j81tna30ua" width="152.4%" height="152.4%" x="-26.2%" y="-26.2%" filterUnits="objectBoundingBox">
            <feOffset dy="3" in="SourceAlpha" result="shadowOffsetOuter1"/>
            <feGaussianBlur in="shadowOffsetOuter1" result="shadowBlurOuter1" stdDeviation="4"/>
            <feColorMatrix in="shadowBlurOuter1" result="shadowMatrixOuter1" values="0 0 0 0 0 0 0 0 0 0 0 0 0 0 0 0 0 0 0.3 0"/>
            <feMerge>
                <feMergeNode in="shadowMatrixOuter1"/>
                <feMergeNode in="SourceGraphic"/>
            </feMerge>
        </filter>
    </defs>
    <g fill="none" fill-rule="evenodd" filter="url(#j81tna30ua)" transform="translate(8 5)">
        <circle cx="41" cy="41" r="41" fill="#0A3FC1"/>
        <g fill="#FFF">
            <path fill-rule="nonzero" d="M23.126.325C22.93.122 22.66 0 22.38 0H5.64C2.55 0 0 2.486 0 5.509V36.49C0 39.514 2.55 42 5.64 42h22.72c3.09 0 5.64-2.486 5.64-5.509V11.89c0-.264-.124-.517-.3-.71L23.125.325zm.3 3.256l7.08 7.274h-4.602c-1.368 0-2.477-1.075-2.477-2.414V3.58zm4.935 36.39H5.639c-1.938 0-3.566-1.572-3.566-3.48V5.51c0-1.897 1.617-3.48 3.566-3.48h15.715v6.412c0 2.465 2.032 4.443 4.55 4.443h6.023v23.607c0 1.908-1.617 3.48-3.566 3.48z" transform="translate(24 20)"/>
            <path d="M25.96 33H9.03C8.463 33 8 33.45 8 34s.463 1 1.029 1H25.97c.566 0 1.029-.45 1.029-1s-.463-1-1.04-1zM11.912 22.248l4.505-4.585v11.302c0 .57.492 1.035 1.094 1.035.601 0 1.093-.466 1.093-1.035V17.663l4.506 4.585c.218.217.503.332.798.332.263 0 .536-.094.744-.28.437-.393.47-1.045.055-1.46l-6.409-6.509c-.208-.207-.492-.331-.798-.331-.306 0-.59.124-.798.331l-6.409 6.51c-.415.414-.382 1.076.055 1.46.46.392 1.148.361 1.564-.053z" transform="translate(24 20)"/>
        </g>
    </g>
</svg>
