<svg xmlns="http://www.w3.org/2000/svg" width="67" height="67" viewBox="0 0 67 67">
    <defs>
        <filter id="dm4qof6i0a" width="116.3%" height="170.5%" x="-8.1%" y="-35.2%" filterUnits="objectBoundingBox">
            <feOffset dy="2" in="SourceAlpha" result="shadowOffsetOuter1"/>
            <feGaussianBlur in="shadowOffsetOuter1" result="shadowBlurOuter1" stdDeviation="4.5"/>
            <feColorMatrix in="shadowBlurOuter1" result="shadowMatrixOuter1" values="0 0 0 0 0 0 0 0 0 0 0 0 0 0 0 0 0 0 0.3 0"/>
            <feMerge>
                <feMergeNode in="shadowMatrixOuter1"/>
                <feMergeNode in="SourceGraphic"/>
            </feMerge>
        </filter>
    </defs>
    <g fill="none" fill-rule="evenodd" filter="url(#dm4qof6i0a)" transform="translate(-131 1)">
        <g transform="translate(140 6)">
            <circle cx="24.5" cy="24.5" r="24.5" fill="#0A3FC1"/>
            <g fill="#FFF">
                <path d="M.182 1.96c3.385 2.79 9.325 7.698 11.071 9.228.235.207.486.312.747.312.26 0 .511-.104.745-.31 1.748-1.531 7.688-6.44 11.073-9.23.21-.173.243-.478.072-.69-.394-.49-.982-.77-1.612-.77H1.722C1.092.5.504.78.11 1.27c-.171.212-.139.517.072.69zM23.703 3.549c-.182-.087-.396-.056-.547.075-2.213 1.914-5.127 4.443-7.326 6.373-.115.102-.18.25-.178.406.003.156.073.302.193.4 2.042 1.669 5.12 3.966 7.343 5.598.088.066.194.099.3.099.08 0 .16-.019.233-.058.171-.09.279-.27.279-.465V4.024c0-.204-.116-.39-.297-.475zM.812 16.401c2.223-1.632 5.302-3.93 7.343-5.599.12-.097.19-.244.193-.4.002-.155-.063-.304-.178-.405C5.97 8.067 3.056 5.538.844 3.624c-.152-.132-.366-.161-.547-.076-.18.086-.297.271-.297.475v11.954c0 .196.108.376.279.465.073.04.154.058.234.058.105 0 .21-.033.3-.099z" transform="translate(12 14)"/>
                <path d="M23.784 18.05c-2.166-1.565-6.157-4.481-8.539-6.433-.194-.16-.475-.154-.666.012-.467.412-.858.758-1.136 1.01-.852.777-2.034.777-2.888 0-.276-.252-.667-.6-1.135-1.01-.19-.167-.47-.172-.665-.012C6.38 13.562 2.386 16.482.216 18.05c-.12.088-.198.223-.213.373-.015.15.034.298.135.408.392.426.944.67 1.513.67h20.697c.57 0 1.12-.244 1.514-.67.1-.11.15-.258.135-.408-.015-.15-.093-.285-.213-.373z" transform="translate(12 14)"/>
            </g>
        </g>
    </g>
</svg>
