<svg xmlns="http://www.w3.org/2000/svg" width="42" height="43" viewBox="0 0 42 43">
    <defs>
        <filter id="3tbmtwae2a" width="116.3%" height="170.5%" x="-8.1%" y="-35.2%" filterUnits="objectBoundingBox">
            <feOffset dy="2" in="SourceAlpha" result="shadowOffsetOuter1"/>
            <feGaussianBlur in="shadowOffsetOuter1" result="shadowBlurOuter1" stdDeviation="4.5"/>
            <feColorMatrix in="shadowBlurOuter1" result="shadowMatrixOuter1" values="0 0 0 0 0 0 0 0 0 0 0 0 0 0 0 0 0 0 0.3 0"/>
            <feMerge>
                <feMergeNode in="shadowMatrixOuter1"/>
                <feMergeNode in="SourceGraphic"/>
            </feMerge>
        </filter>
    </defs>
    <g fill="#C2C2C2" fill-rule="evenodd" filter="url(#3tbmtwae2a)" transform="translate(-207 -11)">
        <g>
            <path d="M11.429 0C7.648 0 4.57 2.926 4.57 6.522s3.077 6.521 6.858 6.521c3.78 0 6.857-2.925 6.857-6.521S15.21 0 11.429 0zM20.958 17.114c-1.971-1.924-4.584-2.984-7.358-2.984h-3.2c-2.774 0-5.387 1.06-7.358 2.984C1.08 19.03 0 21.556 0 24.231c0 .425.358.769.8.769h22.4c.442 0 .8-.344.8-.77 0-2.674-1.08-5.201-3.042-7.116z" transform="translate(216 18)"/>
        </g>
    </g>
</svg>
