<svg xmlns="http://www.w3.org/2000/svg" width="292" height="251" viewBox="0 0 292 251">
    <defs>
        <linearGradient id="zfyi9v95ya" x1="50.013%" x2="50.013%" y1="99.985%" y2=".006%">
            <stop offset="0%" stop-color="gray" stop-opacity=".25"/>
            <stop offset="54%" stop-color="gray" stop-opacity=".12"/>
            <stop offset="100%" stop-color="gray" stop-opacity=".1"/>
        </linearGradient>
    </defs>
    <g fill="none" fill-rule="evenodd">
        <ellipse cx="229" cy="243.5" fill="#E7F2FF" rx="49" ry="7.5"/>
        <path fill="#122553" d="M36.95 30.312C96.89 2.312 220.267-19.303 275 29c54.734 48.303-72.305 201.384-142.79 205-70.485 3.616-87.404 3.203-107.684-17S-22.987 58.312 36.95 30.312z"/>
        <circle cx="209" cy="70" r="21" fill="#FFF"/>
        <circle cx="144" cy="28" r="2" fill="#FF6584"/>
        <circle cx="203" cy="149" r="2" fill="#FF6584"/>
        <circle cx="209" cy="28" r="2" fill="#C9FFEF"/>
        <circle cx="234" cy="115" r="2" fill="#F2F2F2"/>
        <circle cx="162" cy="77" r="2" fill="#C9FFEF"/>
        <circle cx="66" cy="64" r="2" fill="#C9FFEF"/>
        <circle cx="100.5" cy="139.5" r="61.5" fill="#07EBEF"/>
        <circle cx="98" cy="115" r="9" fill="#000" opacity=".2"/>
        <circle cx="97.5" cy="175.5" r="15.5" fill="#000" opacity=".2"/>
        <circle cx="52" cy="151" r="4" fill="#000" opacity=".2"/>
        <circle cx="207" cy="60" r="2" fill="#2A84E9" opacity=".2"/>
        <circle cx="119" cy="101" r="2" fill="#000" opacity=".2"/>
        <circle cx="95.5" cy="142.5" r="2.5" fill="#000" opacity=".2"/>
        <circle cx="202" cy="76" r="2" fill="#2A84E9" opacity=".2"/>
        <circle cx="146" cy="128" r="2" fill="#000" opacity=".2"/>
        <circle cx="221" cy="74" r="3" fill="#2A84E9" opacity=".2"/>
        <circle cx="129" cy="149" r="3" fill="#000" opacity=".2"/>
        <circle cx="63" cy="115" r="4" fill="#000" opacity=".2"/>
        <path fill="#FFF" d="M113.952 175c-6.49-.009-12.974-.386-19.422-1.129-19.393-2.215-37.278-7.45-50.362-14.739-13.243-7.378-20.02-16.018-19.082-24.327.65-5.757 6.182-10.91 16.912-15.752.305-.137.662 0 .799.307.136.306 0 .666-.304.804-10.306 4.65-15.607 9.485-16.205 14.778-.88 7.789 5.679 16.001 18.467 23.126 12.947 7.213 30.673 12.396 49.912 14.594 19.238 2.197 37.668 1.144 51.894-2.965 14.05-4.059 22.273-10.583 23.152-18.372.595-5.268-2.29-10.855-8.344-16.156-.252-.22-.279-.605-.06-.858.22-.254.603-.28.855-.06 6.367 5.576 9.393 11.527 8.752 17.212-.939 8.309-9.469 15.2-24.02 19.403-9.475 2.737-20.783 4.134-32.944 4.134z"/>
        <g transform="translate(194 62.5)">
            <path fill="url(#zfyi9v95ya)" fill-rule="nonzero" d="M95.695 50.448S80.163 35.8 77.92 33.61c-.782-.756-1.52-1.511-2.152-2.148-1.213-1.216-2.767-2.032-4.455-2.34-5.82-1.104-11.773-4.69-11.773-4.69-.033-.043-.065-.08-.096-.126-.504-.707-.875-1.5-1.093-2.341-.032-.124-.065-.252-.093-.383.094-.121.185-.244.274-.37.102-.036.2-.08.294-.134.737-.42 1.151-1.198 1.43-1.964.251-.677.452-1.425 1.05-1.865.215-.12.408-.273.571-.456.121-.24.168-.511.133-.778 0-1.72-.274-3.04.126-4.716.638-2.684 1.224-6.043-.8-8.035-1.044-1.01-2.374-1.675-3.809-1.9-1.3-.207-3.221 1.565-4.538 1.51-3.355-.128-6.182-3.16-9.371-2.18-1.388.422-2.598 1.29-3.443 2.472-1.573 2.246-1.422 5.152-1.196 7.83-.003.205.057.405.174.572.118.139.306.212.422.35.123.184.17.41.13.627-.036.434-.142.859-.311 1.26-.088.135-.106.304-.048.455.063.083.151.143.251.171.135.046.274.079.415.098-.023.222-.043.443-.05.667v.38c.012 3.325 1.696 6.419 4.478 8.23.027.18.058.367.085.56.086.597.164 1.26.221 1.98 0 .13.02.251.03.395l-.067-.139-10.806 5.308c-.798.185-1.544.551-2.179 1.07l-.213.106v.063c-.09.074-.18.153-.272.237l-9.375-10.61L0 41.79l12.022 12.97 13.51-1.128c-.667 4.582-1.121 8.095-1.121 8.095s-2.47 10.608 9.496 8.578c-.078 6.69-2.938 17.855-2.938 17.855.333.436.725.823 1.164 1.15l-.068.456-.754 5.129s-4.488 12.458-5.176 23.57c-.689 11.111-1.553 17.34-1.553 17.34l-1.553 22.226-2.184 10.162c-3.597 3.941-7.785 7.297-12.414 9.946-.413.22-.72.596-.852 1.045-.133.449-.08.932.148 1.341.885 1.526 3.606 3.11 11.849.572 13.117-4.029 11.909-3.872 11.909-3.872s.193-5.394-.365-8.591c-.017-.096-.035-.19-.053-.282 3.142-3.548 1.624-9.317 1.624-9.317s6.212-12.12 3.267-20.034c0 0-.691-6.736 2.935-9.933.05-.046.103-.096.155-.149l.048-.05.118-.126.053-.058.138-.161.03-.036c.056-.068.114-.14.171-.216l.046-.06.145-.164.056-.08.135-.2.046-.065.183-.28.035-.055.153-.252.058-.095.141-.237.053-.09.193-.338.194-.348.055-.103.148-.274.058-.111.179-.34.022-.043.206-.403.05-.098.161-.32.06-.12.169-.343.043-.086.21-.44.036-.073.176-.375.06-.129.164-.35.052-.113.216-.47.209-.467.058-.128.163-.37.055-.129.224-.48v-.02l.219-.504.047-.109.171-.397.058-.134.179-.425.035-.08.216-.505.035-.083.178-.428.058-.138.164-.4.047-.116.209-.504.017-.043.189-.465.058-.144.153-.383.055-.138.181-.458.018-.048.196-.504.058-.146.14-.36.06-.159.149-.382.043-.114.183-.475.05-.131.134-.348.067-.176.118-.307.063-.166.166-.441.048-.129.12-.322.068-.179.1-.269.069-.184.113-.304.073-.197.113-.307.073-.196.078-.212.072-.201.063-.174.169-.458.027-.078.078-.217.053-.143.08-.22.038-.103c.721-1.991 1.164-3.273 1.164-3.273s3.266 11.449 2.764 14.984C52.392 122.366 56 135.499 56 135.499s-2.07 13.134-.862 16.331c1.209 3.198-1.727 15.153-1.727 15.153s.224.123.604.312l-.023.325c-.189 2.629-.598 7.68-1.098 9.633-.691 2.694-.345 5.557 5.176 5.22 5.521-.338 5.695-3.704 5.695-3.704s-1.822-5.887-2.046-9.359c0-.113 0-.224-.015-.332l.156-.058.045-.018c.063-.028.123-.055.181-.085.055-.03.106-.06.158-.094l.046-.03c.043-.03.086-.062.128-.096l.03-.025c.05-.042.098-.085.143-.13l.033-.033c.035-.039.07-.078.103-.119l.035-.045c.04-.053.08-.108.118-.169 1.897-3.021 2.07-9.43 2.07-9.43s3.798-21.55 2.418-24.423c-1.38-2.872-.69-9.595-.69-9.595s-1.554-10.102.173-14.984c1.291-3.656 2.1-16.28 2.063-22.321v-.37-.129c1.286-1.601 2.261-4.411 1.568-9.336-.04-.28-.07-.561-.1-.848 1.96-1.468 3.894-3.193 3.894-3.193l.669-.69.213-.222c.186.078.382.149.586.212.754.342 1.292.534 1.292.534s9.838-8.083 17.258-11.955c7.421-3.873 1.4-10.978 1.4-10.978zm-11.735 7.07s-10.356 6.577-12.248 9.936c-.11.188-.194.389-.252.599l-.251.106-.317.12c1.586-9.064 5.83-18 5.83-18s3.267 2.863 5.529 4.029c2.262 1.165 1.709 3.213 1.709 3.213v-.003z"/>
            <path fill="#092B7D" d="M19.561 180.121c-7.898 2.617-10.507.984-11.353-.589-.448-.875-.149-1.965.674-2.457 4.489-2.766 8.533-6.258 11.982-10.347.879-1.047 1.34-1.688 1.34-1.688s6.12-1.215 7.607 0c.372.303.631 1.151.809 2.25.534 3.292.35 8.846.35 8.846s1.157-.176-11.409 3.985zM63 177.696s-.17 3.434-5.627 3.777c-5.457.342-5.796-2.577-5.114-5.322.494-1.99.898-7.14 1.083-9.823.07-1.019.108-1.68.108-1.68s8.526-.858 7.674 1.555c-.168.639-.217 1.303-.145 1.96.222 3.533 2.021 9.533 2.021 9.533z"/>
            <path fill="#000" d="M31 167.933l-.149.155c-3.173 3.177-9.851 0-9.851 0l.149-.644c.887-.913 1.353-1.473 1.353-1.473s6.179-1.06 7.681 0c.386.263.648 1.003.817 1.962zM60.938 166.26c-.17.666-.22 1.36-.147 2.044-2.274.811-6.302-1.108-7.791-1.893.07-1.062.11-1.752.11-1.752s8.703-.905 7.828 1.601z" opacity=".1"/>
            <path fill="#0A3FC1" d="M66.466 133.149c1.347 2.832-2.357 24.144-2.357 24.144s-.168 6.33-2.02 9.328c-1.854 2.998-9.262-1.167-9.262-1.167s2.863-11.82 1.683-14.994c-1.18-3.174.842-16.154.842-16.154s-3.536-12.995-3.03-16.493c.505-3.499-2.695-14.839-2.695-14.839s-7.41 21.825-10.947 24.99c-3.536 3.163-2.862 9.828-2.862 9.828 2.862 7.829-3.2 19.825-3.2 19.825s1.525 5.83-1.683 9.328c-3.209 3.499-9.935 0-9.935 0l2.196-10.306 1.526-21.991s.841-6.164 1.525-17.16c.684-10.995 5.051-23.323 5.051-23.323l.732-5.076.615-4.255s34.184-1.167 35.026-1.333c.21-.043.318 1.23.328 3.234.038 5.978-.763 18.468-2.014 22.087-1.683 4.831-.167 14.838-.167 14.838s-.7 6.657.648 9.489z"/>
            <g fill="#000" opacity=".05">
                <path d="M21.848 19.74s-7.376 22.014-10.895 25.206c-3.52 3.191-2.849 9.914-2.849 9.914 2.849 7.897-3.185 19.998-3.185 19.998s1.518 5.88-1.675 9.41c-.808.872-1.91 1.414-3.092 1.521 1.77.186 3.64-.083 4.934-1.522C8.27 80.74 6.76 74.858 6.76 74.858S12.795 62.76 9.946 54.86c0 0-.67-6.723 2.849-9.914 2.705-2.453 7.681-16.01 9.845-22.165-.446-1.796-.792-3.042-.792-3.042zM39.779 40.577s-1.519-10.081.167-14.967c1.265-3.65 2.039-16.249 2.003-22.28 0-2.029-.116-3.297-.326-3.262-.104.02-.729.059-1.738.107.142.345.212 1.502.222 3.158.038 6.03-.759 18.629-2.003 22.28-1.675 4.873-.167 14.967-.167 14.967s-.67 6.723.67 9.58c1.341 2.856-2.345 24.353-2.345 24.353s-.167 6.385-2.012 9.41c-.343.543-.904.913-1.538 1.014 1.435.213 2.74.036 3.38-1.015 1.845-3.024 2.012-9.409 2.012-9.409s3.686-21.51 2.345-24.354c-1.34-2.844-.67-9.582-.67-9.582z" transform="translate(26 83.5)"/>
            </g>
            <path fill="#B58A8A" d="M62 26.658L60.82 38.27s-18.688 4.04-16.667-2.525c.955-3.108 1.016-6.444.795-9.094-.058-.717-.132-1.382-.216-1.98-.136-1.03-.33-2.054-.58-3.064 0 0 14.488-10.941 13.807-3.534-.156 1.4-.066 2.816.267 4.185.212.838.573 1.63 1.067 2.34C60.485 26.28 62 26.658 62 26.658z"/>
            <path fill="#000" d="M58 22.368c-.134.186-.276.37-.42.545-3.232 3.915-8.822 4.737-13.004 1.911-.136-1.048-.328-2.088-.576-3.115 0 0 14.41-11.124 13.732-3.593-.154 1.422-.064 2.861.268 4.252z" opacity=".1"/>
            <path fill="#B58A8A" d="M60 15.496C60 21.021 55.523 25.5 50 25.5s-10-4.479-10-10.004v-.384c.213-5.443 4.74-9.715 10.184-9.61 5.444.104 9.804 4.547 9.808 9.994H60z"/>
            <path fill="#000" d="M68 86.769c-.852 1.138-2.121 1.897-3.532 2.11l-7.745 2.698h-.017l-2.349.818-.984-2.411-1.206-2.96v5.371S37.369 93.41 32 89.13l.616-4.287s34.214-1.175 35.056-1.342c.211-.033.318 1.246.328 3.268zM62 26.572l-1.18 11.69s-18.688 4.067-16.667-2.543c.955-3.128 1.016-6.487.795-9.155.323.68 2.7 5.495 5.772 6.331.383.108.781.146 1.177.113.654-.078 1.277-.32 1.812-.706 2.766-1.85 5.083-6.717 5.592-7.802C60.485 26.19 62 26.572 62 26.572z" opacity=".1"/>
            <path fill="#148E9E" d="M92.414 61.357C85.22 65.22 75.681 73.27 75.681 73.27s-7.027-2.52-5.186-5.876c1.842-3.356 11.873-9.907 11.873-9.907s.505-2.015-1.672-3.191c-2.178-1.177-5.356-4.031-5.356-4.031s-7.53 16.288-6.024 27.203c1.505 10.916-5.02 11.408-5.02 11.408l-7.689 2.7h-.018l-2.331.819-.978-2.414-1.197-2.96v5.374S35.014 93.572 31 88.03c0 0 3.68-14.776 2.678-20.485-1.003-5.71-2.175-34.423-2.175-34.423l12.8-6.465s2.503 5.484 5.787 6.378c.38.107.776.145 1.17.112.649-.077 1.268-.318 1.8-.7 3.1-2.066 5.646-7.947 5.646-7.947s5.772 3.574 11.416 4.677c1.645.311 3.154 1.126 4.32 2.332.61.642 1.328 1.38 2.086 2.142 2.175 2.183 17.235 16.792 17.235 16.792s5.838 7.05-1.349 10.914z"/>
            <path fill="#B58A8A" d="M76 70.453l-2.262 2.282-.666.674s-6.028 5.253-7.58 5.087c-1.553-.166-4.135-10.176-1.04-9.52 1.882.4 4.085-.23 5.52-.787.527-.201 1.04-.431 1.54-.689L76 70.453z"/>
            <path fill="#000" d="M59.997 15.219c.004 2.298-.832 4.522-2.36 6.275-.532.05-1.05-.191-1.344-.625-.281-.48-.163-1.083-.35-1.6-.187-.518-.612-.874-.88-1.335-.682-1.16-.395-2.917-1.642-3.539-.573-.284-1.267-.189-1.907-.084-1.257.201-2.521.602-3.76.769-1.413.194-2.686-.7-4.08-.72-1.245-.02-2.494.69-3.674.486.213-5.292 4.742-9.446 10.188-9.344 5.446.101 9.808 4.42 9.812 9.717h-.003z" opacity=".1"/>
            <path fill="#2F1F0D" d="M51.376 14.096c.627-.105 1.306-.205 1.868.09 1.22.638.94 2.45 1.607 3.644.263.475.689.862.864 1.375.176.513.068 1.154.344 1.649.398.715 1.479.82 2.188.395.71-.426 1.106-1.208 1.374-1.983.236-.682.434-1.436 1.003-1.882.207-.12.392-.276.549-.46.117-.242.163-.515.13-.784 0-1.734-.263-3.077.12-4.757.615-2.708 1.176-6.099-.77-8.107-.995-1.015-2.277-1.686-3.664-1.918-1.254-.21-3.099 1.58-4.367 1.538-3.226-.13-5.949-3.187-9.024-2.2-1.345.432-2.511 1.31-3.314 2.495-1.504 2.268-1.37 5.196-1.151 7.902-.003.205.055.407.168.577.113.139.296.213.406.354.119.186.164.412.125.63-.033.442-.134.874-.298 1.283-.084.139-.1.309-.045.462.062.085.15.147.25.174 1.254.462 2.608-.428 3.949-.405 1.341.023 2.614.941 3.998.741 1.221-.192 2.46-.605 3.69-.813z"/>
            <path fill="#0A3FC1" fill-opacity=".2" d="M57 91.598h-.017l-2.378.902-.879-2.495L50 79.412l.584-46.324c.374.106.763.144 1.15.111.639-.077 1.248-.318 1.771-.699L52.8 78.093 57 91.598z"/>
            <circle cx="52.5" cy="35" r="1" fill="#0A3FC1"/>
            <circle cx="51.5" cy="52" r="1" fill="#0A3FC1"/>
            <circle cx="51.5" cy="70" r="1" fill="#0A3FC1"/>
            <circle cx="51.5" cy="78" r="1" fill="#0A3FC1"/>
            <path fill="#0A3FC1" fill-opacity=".2" d="M69 53.5L58 53.5 58 42.981 63.5 41.5 69 42.981z"/>
            <circle cx="51.5" cy="43" r="1" fill="#0A3FC1"/>
            <circle cx="63.5" cy="43" r="1" fill="#0A3FC1"/>
            <circle cx="51.5" cy="61" r="1" fill="#0A3FC1"/>
            <path fill="#148E9E" d="M33.487 32.5s-4.725.662-6.244 9.107c-1.518 8.445-3.036 20.202-3.036 20.202s-2.532 10.93 10.118 8.275l.675-3.81s-1.274 4.388-.927-4.387c.346-8.775.423-14.5.423-14.5L33.486 32.5z"/>
            <path fill="#FFF" d="M33.487 32.5s-4.725.662-6.244 9.107c-1.518 8.445-3.036 20.202-3.036 20.202s-2.532 10.93 10.118 8.275l.675-3.81s-1.941 4.223-1.602-4.555c.339-8.777 1.098-14.324 1.098-14.324L33.486 32.5z" opacity=".05"/>
            <path fill="#000" d="M76 69.885L73.776 72.5C70.614 71.08 70 67.358 70 67.358l.082-.069c.518-.23 1.023-.493 1.513-.789L76 69.885z" opacity=".1"/>
            <path fill="#148E9E" d="M72.659 65.5L70 67.39s.879 4.597 5.863 5.11L78 68.915 72.659 65.5z"/>
            <path fill="#F2F5FB" d="M1 42.147L22.361 23.5 32.137 34.634 48.914 33.787 54 44.081 38.028 64.5 30.546 53.376 12.75 54.866z"/>
            <path fill="#E4E4FA" d="M52 43.951L46.428 51.194 40.482 58.925 37.735 62.5 31.381 52.607 24.715 53.193 13.864 54.145 5.78 45.199 3 42.124 14.278 32.059 22.751 24.5 27.116 29.583 31.787 35.023 36.453 34.783 47.299 34.222 51.533 42.983z"/>
            <path fill="#7F92F5" d="M17 35.729L5.786 44.5 3 41.458 14.303 31.5zM29.68 42.775L28.811 37.222 23 30.311 27.096 29.5 31.706 34.937 36.311 34.697 38 41.311 29.795 43.5zM52 43.443L46.734 50.5 44 46.246 51.559 42.5z"/>
            <path fill="#7F92F5" d="M41 58.859L38.249 62.5 31.886 52.423 25.211 53.02 24 44.499 30.237 42.5 30.986 48.321 35.205 48.987z"/>
            <path fill="#0A3FC1" d="M32.178 46.493c-.11.026-.225-.023-.297-.128-1.427-2.1-3.174-3.855-5.147-5.172-.15-.098-.203-.323-.121-.502.082-.179.27-.244.418-.145 2.041 1.363 3.848 3.178 5.324 5.35.07.1.09.238.052.36-.037.124-.126.213-.233.237h.004z"/>
            <path fill="#0A3FC1" d="M28.837 46.493c-.102.027-.207-.028-.266-.14-.06-.113-.062-.26-.006-.376l3.378-7.313c.075-.161.235-.212.358-.114.123.098.161.309.086.47l-3.377 7.313c-.038.083-.1.141-.173.16z"/>
            <path fill="#9FB3CA" d="M14 53.5L32.203 34.267 48 33.5 31.871 52.097z" opacity=".1"/>
            <path fill="#B58A8A" d="M29 63.112s4.03-10.636 5.966-9.532c1.935 1.105 7.577 7.736 3.71 10.637-3.868 2.9-6.612 4.283-6.612 4.283L29 68.086v-4.974z"/>
            <path fill="#148E9E" d="M27 62.976s3.872-3.01 7 6.105l-2.95.419-3.377-2.007L27 62.976z"/>
            <path fill="#FFF" d="M27 62.976s3.872-3.01 7 6.105l-2.95.419-3.377-2.007L27 62.976z" opacity=".05"/>
        </g>
    </g>
</svg>
