<svg xmlns="http://www.w3.org/2000/svg" width="132" height="124" viewBox="0 0 132 124">
    <defs>
        <linearGradient id="9xxns4o1la" x1="49.999%" x2="49.999%" y1="100%" y2="0%">
            <stop offset="0%" stop-color="gray" stop-opacity=".25"/>
            <stop offset="54%" stop-color="gray" stop-opacity=".12"/>
            <stop offset="100%" stop-color="gray" stop-opacity=".1"/>
        </linearGradient>
        <linearGradient id="y711saabhb" x1="50%" x2="50%" y1="100%" y2="0%">
            <stop offset="0%" stop-color="gray" stop-opacity=".25"/>
            <stop offset="54%" stop-color="gray" stop-opacity=".12"/>
            <stop offset="100%" stop-color="gray" stop-opacity=".1"/>
        </linearGradient>
        <linearGradient id="ftdg82kvdc" x1="60.761%" x2="39.299%" y1="98.88%" y2="1.029%">
            <stop offset="0%" stop-color="gray" stop-opacity=".25"/>
            <stop offset="54%" stop-color="gray" stop-opacity=".12"/>
            <stop offset="100%" stop-color="gray" stop-opacity=".1"/>
        </linearGradient>
        <linearGradient id="yylcf1dfcd" x1="50%" x2="50%" y1="99.914%" y2="-.086%">
            <stop offset="0%" stop-color="gray" stop-opacity=".25"/>
            <stop offset="54%" stop-color="gray" stop-opacity=".12"/>
            <stop offset="100%" stop-color="gray" stop-opacity=".1"/>
        </linearGradient>
    </defs>
    <g fill="none" fill-rule="evenodd" transform="translate(-.5)">
        <path fill="#E0E0E0" d="M20.478 13.788L91.203 14.118 91.659 109.812 20.933 109.483z" transform="rotate(-12.11 56.068 61.8)"/>
        <path fill="url(#9xxns4o1la)" d="M10.428 6.702L77.43 6.144 76.608 97.566 9.606 98.124z" opacity=".5" transform="rotate(-12.11 96.156 -1.866)"/>
        <path fill="#FAFAFA" d="M22.482 16.104L89.078 16.415 89.508 106.832 22.913 106.521z" transform="rotate(-12.11 55.995 61.468)"/>
        <path fill="url(#y711saabhb)" d="M29.848 13.296L62.886 13.45 62.923 21.287 29.886 21.133z" transform="rotate(-12.11 46.386 17.292)"/>
        <path fill="url(#ftdg82kvdc)" fill-rule="nonzero" d="M44.037 6.01c-2.429.558-3.965 3.166-3.431 5.824.534 2.658 2.934 4.364 5.358 3.806 2.423-.558 3.964-3.165 3.43-5.823-.534-2.659-2.93-4.364-5.357-3.807zm1.523 7.603c-1.05.267-2.146-.17-2.775-1.109-.629-.938-.665-2.19-.09-3.167.573-.978 1.643-1.487 2.706-1.288 1.063.198 1.908 1.065 2.138 2.192.158.728.037 1.493-.334 2.126-.372.633-.963 1.08-1.645 1.246z"/>
        <path fill="#63A5FF" d="M30.088 12.973L62.429 13.124 62.465 20.616 30.124 20.465z" transform="rotate(-12.11 46.277 16.794)"/>
        <path fill="#63A5FF" fill-rule="nonzero" d="M44.056 6.003c-2.43.514-3.976 2.868-3.455 5.259.521 2.391 2.913 3.913 5.343 3.4 2.43-.513 3.976-2.867 3.455-5.258-.25-1.148-.954-2.152-1.956-2.79-1.002-.637-2.22-.857-3.387-.61zm1.488 6.834c-1.027.216-2.085-.197-2.682-1.048-.596-.85-.613-1.971-.043-2.84.57-.867 1.616-1.312 2.65-1.125 1.032.187 1.85.967 2.07 1.978.3 1.38-.593 2.738-1.995 3.035z"/>
        <path fill="#E0E0E0" d="M41.5 19.683H112.5V116.12700000000001H41.5z"/>
        <path fill="url(#9xxns4o1la)" d="M0.046 0.019H68.924V92.433H0.046z" opacity=".5" transform="translate(42.5 21.65)"/>
        <path fill="#FFF" d="M43.5 21.651H110.5V112.191H43.5z"/>
        <path fill="url(#y711saabhb)" d="M60.5 18.698H93.5V26.571H60.5z"/>
        <path fill="url(#yylcf1dfcd)" fill-rule="nonzero" d="M77 9.841c-2.485 0-4.5 2.203-4.5 4.92 0 2.719 2.015 4.922 4.5 4.922s4.5-2.203 4.5-4.921c0-2.718-2.015-4.92-4.5-4.92zm0 7.76c-1.08.028-2.07-.647-2.5-1.705-.432-1.059-.22-2.29.535-3.117.755-.826 1.903-1.081 2.904-.646 1.001.435 1.656 1.474 1.656 2.629.01 1.544-1.15 2.807-2.595 2.826v.013z"/>
        <path fill="#63A5FF" d="M60.5 17.714H92.5V25.587H60.5z"/>
        <path fill="#63A5FF" fill-rule="nonzero" d="M77 10.825c-1.82 0-3.46 1.08-4.157 2.734-.697 1.655-.312 3.56.975 4.826 1.287 1.267 3.223 1.646 4.904.96 1.682-.685 2.778-2.3 2.778-4.091 0-2.446-2.015-4.429-4.5-4.429zm0 6.985c-1.433-.002-2.594-1.146-2.594-2.556 0-1.41 1.161-2.554 2.594-2.556 1.433-.002 2.597 1.14 2.6 2.55 0 .678-.274 1.328-.762 1.807-.488.48-1.149.748-1.838.747v.008z"/>
        <g fill="#479AE6" opacity=".5">
            <path d="M1.685 0.009H2.685V3.826H1.685z" transform="translate(.5 117.111)"/>
            <path d="M1.536 -0.021L2.52 -0.021 2.52 3.857 1.536 3.857z" transform="translate(.5 117.111) rotate(90 2.028 1.918)"/>
        </g>
        <g fill="#47E6B1" opacity=".5">
            <path d="M1.65 0H2.65V3.817H1.65z" transform="translate(71.5)"/>
            <path d="M1.486 0.053L2.47 0.053 2.47 3.762 1.486 3.762z" transform="translate(71.5) rotate(90 1.978 1.907)"/>
        </g>
        <path fill="#4D8AF0" d="M124.337 123.032c-.256-.11-.388-.39-.307-.653.007-.02.01-.04.012-.06.008-.12-.065-.23-.18-.27-.113-.042-.241-.005-.314.09-.013.017-.023.035-.031.053-.112.252-.397.382-.664.302-.02-.006-.04-.01-.061-.012-.121-.007-.233.065-.275.177-.042.112-.004.238.093.31.016.012.034.022.053.03.256.11.388.391.307.654-.007.02-.01.04-.012.06-.008.119.065.229.18.27.113.042.241.005.314-.09.013-.017.023-.035.031-.054.112-.251.397-.381.664-.301.02.006.04.01.061.012.121.007.233-.065.275-.177.042-.112.004-.238-.093-.31-.016-.012-.034-.023-.053-.03z" opacity=".5"/>
        <path fill="#35FDEF" d="M22.337 90.556c-.256-.11-.388-.39-.307-.653.007-.02.01-.04.012-.06.008-.12-.065-.23-.18-.27-.113-.042-.241-.005-.314.09-.013.017-.023.034-.031.053-.112.252-.397.382-.664.302-.02-.007-.04-.01-.061-.012-.121-.007-.233.065-.275.177-.042.112-.004.238.093.31.016.012.034.022.053.03.256.11.388.39.307.654-.007.02-.01.04-.012.06-.008.119.065.229.18.27.113.041.241.004.314-.091.013-.016.023-.034.031-.053.112-.252.397-.381.664-.301.02.006.04.01.061.011.121.008.233-.064.275-.176.042-.112.004-.238-.093-.31-.016-.013-.034-.023-.053-.03zM107.337 11.826c-.256-.11-.388-.39-.307-.653.007-.02.01-.04.012-.06.008-.12-.065-.23-.18-.27-.113-.042-.241-.005-.314.09-.013.017-.023.034-.031.053-.112.252-.397.382-.664.301-.02-.006-.04-.01-.061-.011-.121-.007-.233.064-.275.177-.042.112-.004.238.093.31.016.012.034.022.053.03.256.11.388.39.307.654-.007.019-.01.039-.012.06-.008.119.065.229.18.27.113.041.241.004.314-.091.013-.017.023-.034.031-.053.112-.252.397-.381.664-.301.02.006.04.01.061.011.121.007.233-.064.275-.176.042-.113.004-.239-.093-.31-.016-.013-.034-.023-.053-.031z" opacity=".5"/>
        <circle cx="131.5" cy="50.19" r="1" fill="#5544F5" opacity=".5"/>
        <circle cx="36.5" cy="118.095" r="1" fill="#5544F5" opacity=".5"/>
        <circle cx="119.5" cy="76.762" r="1" fill="#5544F5" opacity=".5"/>
        <circle cx="13.5" cy="15.746" r="1" fill="#4D8AF0" opacity=".5"/>
        <circle cx="1.5" cy="49.206" r="1" fill="#479AE6" opacity=".5"/>
        <ellipse cx="66.5" cy="53.143" fill="#63A5FF" rx="4" ry="3.937"/>
        <ellipse cx="90.5" cy="53.143" fill="#63A5FF" rx="4" ry="3.937"/>
        <path fill="#63A5FF" d="M55.5 79.674c7.5-7.846 15-11.77 22.5-11.77s15 3.924 22.5 11.77v2.009c-7.5-7.847-15-11.77-22.5-11.77s-15 3.923-22.5 11.77v-2.009z"/>
    </g>
</svg>
