<svg xmlns="http://www.w3.org/2000/svg" width="261" height="180" viewBox="0 0 261 180">
    <defs>
        <linearGradient id="x4xze337aa" x1="49.997%" x2="49.997%" y1="100.013%" y2=".028%">
            <stop offset="0%" stop-color="gray" stop-opacity=".25"/>
            <stop offset="54%" stop-color="gray" stop-opacity=".12"/>
            <stop offset="100%" stop-color="gray" stop-opacity=".1"/>
        </linearGradient>
        <linearGradient id="9n7eukzaob" x1=".017%" x2="99.997%" y1="50.001%" y2="50.001%">
            <stop offset="0%" stop-color="gray" stop-opacity=".25"/>
            <stop offset="54%" stop-color="gray" stop-opacity=".12"/>
            <stop offset="100%" stop-color="gray" stop-opacity=".1"/>
        </linearGradient>
    </defs>
    <g fill="none" fill-rule="evenodd">
        <g transform="translate(175 .5)">
            <path fill="url(#x4xze337aa)" fill-rule="nonzero" d="M84.765 72.29c-.475-.364-1.03-.607-1.62-.71-.622-.142-1.256-.232-1.887-.331l-8.175-1.178c-.825-.153-1.666-.197-2.503-.132-.848.07-1.633.475-2.178 1.127-.244.3-.378.675-.379 1.062.045.389.172.764.372 1.101.079.157.147.32.202.488.079.375.176.746.293 1.11.036.08.083.153.14.22v.056c-.09.458.198.935.069 1.377-.113.378-.482.606-.714.922-.317.457-.33 1.058-.033 1.529.249.384.7.646.83 1.088.17.58-.289 1.14-.697 1.588-.752.825-1.446 1.699-2.08 2.617-.177.226-.291.495-.331.78-.037.577.518 1.084.422 1.658-.077.451-.518.727-.9.995-1.411.929-2.544 2.422-2.657 4.11-.362-2.686-1.476-5.216-3.214-7.297-.475-.57-.996-1.145-1.192-1.868-.073-.288-.086-.597-.186-.875-.332-.88-1.388-1.257-1.85-2.067-.331-.57-.331-1.303-.743-1.804-.412-.5-1.06-.614-1.415-1.098-.177-.328-.328-.67-.451-1.021-.15-.287-.359-.539-.614-.737-.05-.039-.1-.075-.153-.11.111-.099.175-.241.176-.39 0-.389-.385-.644-.72-.836-.432-.246-.854-.511-1.266-.787.45-.208.838-.527 1.132-.925.369-.594.521-1.297.432-1.99-.023-.56-.232-1.095-.594-1.522-.21-.223-.472-.382-.691-.59-.568-.555-.76-1.374-.996-2.13-.312-.995-.8-2.04-1.71-2.568-.438-.255-.95-.374-1.378-.643-.428-.269-.787-.776-.638-1.264.1-.331.409-.56.618-.842.52-.759.332-1.794-.422-2.322-.245-.156-.548-.292-.597-.577-.393-.102-.692-.419-.77-.816-.075-.39-.075-.79 0-1.18l.255-1.845c.295.123.628.123.923 0 .287.466.621.901.996 1.3 1.011 1.193 1.799 2.558 2.324 4.03.19.53.382 1.125.874 1.407.17.096.362.145.528.248.204.143.38.323.518.531.398.527.797 1.051 1.192 1.579l.02.08c.01.046.028.09.053.132.073.083.175.135.285.146 1.222.282 2.594.54 3.653-.126.956-.597 1.375-1.778 2.185-2.567.574-.56 1.388-.995 1.55-1.785-.193-.06-.384-.13-.57-.209.165-.166.331-.358.557-.577.328-.32.624-.673.883-1.051.28-.467.504-.966.664-1.486.64-1.822 1.282-3.645 1.926-5.47.306-.862.611-1.731.996-2.57.399-.909.87-1.781 1.305-2.674 1.123-2.32 1.99-4.756 2.584-7.263.105-.343.14-.702.103-1.058-.093-.574-.528-1.025-.943-1.433-.418-.452-.893-.845-1.415-1.171-.529-.329-1.168-.432-1.773-.285-.85.248-1.385 1.117-1.58 1.99-.196.872-.123 1.77-.206 2.653-.12 1.277-.558 2.511-.665 3.791-.056.74 0 1.49-.09 2.23-.163.967-.5 1.898-.995 2.745-1.077 2.023-2.535 3.818-4.294 5.288-.202.169-.411.331-.61.514 0-.143.023-.289.043-.432-.145.038-.286.088-.422.15.017-.168 0-.337-.05-.498-.266-.793-1.448-.995-1.66-1.8-.036-.2-.055-.402-.057-.605-.07-.706-.55-1.303-.717-1.99-.153-.633-.036-1.326-.332-1.913-.252-.368-.548-.702-.883-.995-.4-.456-.687-.997-.84-1.583-.043-.162-.083-.331-.13-.494.05-.368.01-.743-.12-1.091-.301-.75-1.082-1.23-1.364-1.99-.22-.59-.123-1.327-.538-1.785-.22-.218-.49-.381-.787-.474-1.52-.591-3.114-.967-4.738-1.118-.91-.083-1.913-.129-2.564-.77-.76-.742-.796-2.079-1.686-2.653-.784-.507-1.893-.132-2.5.58-.092.106-.176.216-.253.332-.11-.444-.135-.906-.07-1.36 0-.112.023-.228.033-.331 1.5-.49 2.776-1.496 3.6-2.84v.02l.04.103c.096.243.249.475.474.501.15-.002.296-.054.412-.149.2-.14.385-.3.551-.478.085-.093.164-.189.24-.288.153-.207.284-.43.391-.664.165-.352.277-.726.332-1.11.06-.385.067-.78.133-1.165.062-.298.143-.591.243-.879.033-.096.066-.192.096-.288l.106-.332c.208-.682.32-1.39.332-2.103v-.358c-.024-.94-.426-1.83-1.116-2.471-.57-.468-1.328-.664-1.746-1.297-.272-.425-.332-.972-.491-1.47-.352-1.214-1.364-2.124-2.61-2.344-.736-.081-1.475.122-2.066.567l-.046.036c-.33.251-.609.562-.824.916-.438-.121-.84-.35-1.168-.664-.333-.308-.588-.696-.924-.995-.638-.584-1.544-.774-2.364-.497-.84.336-1.47 1.055-1.69 1.933-.182.684-.15 1.47-.531 2.04-.296.445-.78.664-1.12 1.068-.21.256-.353.56-.417.886-.04.182-.06.368-.057.554 0 .083 0 .166.02.245v.04c.012.09.03.18.056.269.095.336.264.647.495.908.22.251.493.449.8.578.126.048.255.09.386.122l.395.09.14.033c-.967 1.813-1.036 3.97-.187 5.841 0 .093-.023.186-.033.279-.054 1.306.004 2.614.173 3.91.046.514.073 1.081-.243 1.49-.143.16-.305.303-.481.427.18-.232.362-.46.548-.69-.468-.47-1.209-.53-1.873-.484-1.285.096-2.533.477-3.653 1.115-.743.427-1.507.995-2.357.895-.501-.056-.996-.332-1.484-.199-.275.112-.53.264-.76.451-.182.13-.401.198-.625.193-.521-.64-1.328-1.075-1.952-1.596-.71-.632-1.361-1.328-1.943-2.08-1.076-1.296-2.148-2.597-3.204-3.907-.89-1.1-1.803-2.292-1.96-3.701-.015-.14-.023-.28-.022-.422.021-.67.106-1.336.252-1.99.04-.158.04-.323 0-.48-.1-.332-.482-.455-.81-.528.043-.255.073-.517.09-.766.185-2.853-.017-5.752.587-8.544.23-1.075.604-2.163 1.378-2.942 1.212-1.224 3.24-1.52 4.17-2.969.778-1.207.469-2.915-.507-3.98-.977-1.065-2.48-1.5-3.912-1.446-.402-.014-.798.092-1.139.305-.318.283-.557.644-.69 1.048L7.304 4.99c-.413.9-.761 1.829-1.043 2.779-.398 1.453-.488 2.985-.803 4.451 0 1.128-.727 2.534-1.126 3.572-.445 1.168-.926 2.322-1.328 3.513-.1.298-.448 1.184-.664 1.99-.082.047-.157.104-.226.17-.173.221-.33.455-.471.7-.303.397-.794.61-1.126.994-.332.385-.402 1.091.06 1.284.093.031.19.052.289.063.06.005.12.015.179.03.498.139.694.766.62 1.283-.072.518-.331.995-.374 1.513-.09.915.448 1.768.966 2.537.536.834 1.129 1.631 1.773 2.385.468.524.996.995 1.468 1.5 1.796 1.843 3.224 4 4.838 6.003.58.756 1.24 1.447 1.969 2.063.475.371.973.714 1.49 1.025l2.776 1.757c.315.23.671.399 1.05.495.123.016.248.016.372 0 .016.083.03.162.05.245.215.87.69 1.659.743 2.544.053.886-.026 1.791.037 2.687.06.826.242 1.658.289 2.47.093 1.566-.293 3.112-.665 4.644-.56 2.243-.9 4.531-1.992 6.564-.305.56-.664 1.131-.664 1.772 0 .076 0 .155.02.232l-.498.282c-.146.083-.292.165-.425.252-.63.411-1.305.865-1.564 1.575-.21.574-.113 1.23-.365 1.788-.012.025-.026.05-.04.073-.266.517-.794.902-.913 1.47-.09.434.083.895 0 1.326v.017c-.076.216-.136.438-.18.663-.003.074.004.147.02.219.064.251.203.477.399.647.12.114.25.218.388.308.142.093.288.18.439.259l.086.046c.126.067.252.13.382.19l.086.036c.15.066.302.126.455.179l.106.033c.12.04.243.076.366.106l.083.027.076.016.332.07.123.023c.146.025.295.044.448.06h.133c.113 0 .222.017.332.02h.608c.156 0 .312-.023.468-.043h.05c.14-.02.279-.043.418-.073l.106-.023c.13-.03.26-.06.389-.1l.07-.02c.156-.046.312-.096.464-.156.529-.217 1.042-.47 1.534-.76.332-.182.665-.367.997-.537.246-.124.499-.234.757-.331.628-.268 1.31-.382 1.992-.332.336.046.669.113.996.202v.11c.27 1.592.537 3.184.8 4.776.435-.313.895-.589 1.375-.826-.09.24-.149.491-.176.746-.02.198-.02.397 0 .594.03.315.096.664-.093.912-.116.153-.332.24-.395.412-.046.176-.058.36-.033.54-.028.426-.365.768-.79.803.195.55-.012 1.161-.502 1.48-.139.066-.268.15-.385.251-.114.147-.19.319-.223.501-.438 1.643-1.341 3.124-2.6 4.269-.472.37-.903.79-1.285 1.254-.236.358-.43.742-.58 1.144-.886 2.163-1.785 4.326-2.697 6.491-.505 1.21-.996 2.441-1.155 3.745-.399 3.575-3.587 6.607-2.989 10.156.121.886.479 1.724 1.036 2.424.664.8 1.66 1.257 2.657 1.629 2.56.995 5.26 1.539 7.949 2.086l4.223.866c.83.19 1.67.323 2.517.398 1.02.07 2.066-.027 3.058.232.615.16 1.202.455 1.837.488.544.03 1.215-.087 1.537.358.322.444.073 1.031.379 1.426.49.627 1.69 0 2.224.59.146.227.258.474.332.734.081.16.194.302.332.418.033.187.046.377.04.567-.07.77-.23 1.53-.478 2.262-.398 1.346-.796 2.694-1.192 4.043-.151.476-.262.965-.332 1.46-.025.24-.025.482 0 .722.07.733.491 1.49 1.192 1.729.543.143 1.121.072 1.614-.2.475-.247.92-.548 1.328-.895.735-.556 1.381-1.22 1.916-1.97 1.66-2.481 1.122-5.838 2.288-8.58.773-1.832 2.28-3.318 2.782-5.248.117-.367.131-.76.04-1.134-.21-.664-.916-1.042-1.577-1.28h-.03c-.543-.194-1.097-.352-1.66-.475-.14-.03-.283-.053-.425-.076-.316-.257-.568-.584-.734-.956-.026-.197-.079-.39-.156-.573-.107-.16-.285-.26-.478-.266-.332-.033-.777.087-1.14.06-.74-.053-1.231-.78-1.895-1.114-.664-.335-1.385-.253-2.092-.203-.253.035-.51.019-.757-.046-.295-.136-.565-.321-.797-.548-.829-.644-1.912-.861-2.925-.587-.318.129-.655.205-.997.226-.647-.037-1.105-.614-1.583-1.051-1.309-1.198-3.172-1.513-4.759-2.3-.243-.09-.445-.263-.57-.49-.183-.451.228-.902.6-1.21l2.73-2.266c2.988-2.481 6.724-4.348 8.111-7.987.145-.488.37-.948.665-1.363.107-.127.231-.238.368-.332.604-.39 1.336-.533 2.042-.398.861.193 1.677.548 2.404 1.048 1.189.719 2.346 1.493 3.47 2.322 1.114.795 2.173 1.664 3.171 2.6 1.743 1.659 3.194 3.626 4.818 5.414 1.624 1.787 3.48 3.456 5.735 4.311 2.254.856 4.98.82 6.916-.617 2.235-1.658 2.952-4.623 3.517-7.343 1.245-1.2 1.62-3.028 2.228-4.644.381-1.024.87-1.99 1.281-3.011.492-1.2.877-2.441 1.262-3.679.436-1.242.733-2.53.883-3.837.16-2.067-.395-4.266.186-6.206.767-.17 1.465-.6 2.218-.852 1.123-.369 2.325-.309 3.513-.302h.077c.41.043.822-.054 1.168-.276.399-.331.462-.898.482-1.412.046-1.27-.033-2.697-.986-3.52zm-48.11-56.578c-.275.068-.56.088-.84.06l.84-.06z"/>
            <path fill="#BE6F72" d="M37.963 36.694c-.402.341-.873.591-1.381.733l-2.355.843c-1.278.457-2.613.918-3.961.753-.754-.093-3.985-.568-4.473-1.155-.743-.909 1.863-2.245 2.753-3.011.202-.145.389-.31.558-.491.332-.405.289-.972.242-1.483-.169-1.294-.226-2.6-.172-3.904.025-.31.07-.62.132-.925.332-1.526 1.754-.969 2.876-.564 1.35.438 2.657 1.004 3.901 1.688.38.195.709.474.963.816.492.743.296 1.718.216 2.654-.07.726-.066 1.422.389 1.95.229.202.439.424.627.663.218.496.09 1.075-.315 1.433zM5.442 12.79c.332-1.47.405-2.985.804-4.442.281-.946.63-1.872 1.042-2.77l1.465-3.412c.134-.403.372-.764.69-1.045.342-.211.738-.317 1.14-.305 1.43-.053 2.935.391 3.91 1.443.977 1.051 1.286 2.753.509 3.957-.93 1.45-2.959 1.741-4.17 2.962-.774.78-1.15 1.864-1.379 2.935-.604 2.786-.401 5.675-.587 8.521-.06.886-.233 1.897-.997 2.355-.461.226-.974.325-1.487.289l-2.178.036c-.366 0-1.69.229-1.933-.046-.425-.481.545-2.876.72-3.41.393-1.184.874-2.338 1.329-3.503.395-1.038 1.122-2.44 1.122-3.565z"/>
            <path fill="#3F3D56" d="M50.418 116.991c-.501 1.917-2.009 3.41-2.783 5.238-1.165 2.736-.64 6.083-2.287 8.557-.535.752-1.18 1.417-1.916 1.974-.408.346-.854.645-1.329.892-.492.271-1.07.342-1.613.199-.7-.24-1.123-.995-1.192-1.725-.025-.24-.025-.48 0-.72.07-.494.18-.98.332-1.456.398-1.342.796-2.686 1.192-4.033.248-.73.408-1.488.478-2.256.043-.835-.488-1.923-.262-2.703.103-.351.488-.663.664-.958.25-.425.442-.881.57-1.357.273-.925.459-1.914 1.03-2.693.373-.462.809-.87 1.295-1.21.36-.315.78-.551 1.235-.694.442-.078.896-.056 1.329.063.563.12 1.117.277 1.66.471h.03c.664.239 1.368.607 1.577 1.277.102.372.098.764-.01 1.134zM85.748 76.214c-.02.514-.083 1.088-.482 1.41-.347.222-.759.319-1.169.275h-.09c-1.185 0-2.39-.066-3.512.302-.854.282-1.637.8-2.527.902-1.225.14-2.378-.53-3.463-1.114-1.023-.55-2.072-1.049-3.145-1.493-.704-.288-2.142-.474-2.48-1.244-.116-.364-.214-.734-.293-1.108-.055-.167-.123-.33-.202-.487-.2-.336-.326-.71-.372-1.098.001-.387.135-.761.379-1.061.547-.647 1.33-1.05 2.174-1.118.837-.065 1.679-.02 2.504.133l8.175 1.174c.631.09 1.265.179 1.886.331.59.103 1.146.346 1.62.71.967.81 1.046 2.232.997 3.486z"/>
            <path fill="#61737D" d="M78.562 78.337c-.996 2.1-.279 4.584-.458 6.906-.15 1.304-.447 2.588-.883 3.827-.385 1.234-.77 2.471-1.262 3.669-.412.995-.9 1.99-1.282 3.005-.607 1.618-.996 3.44-2.228 4.643-.564 2.713-1.282 5.679-3.516 7.324-1.943 1.433-4.649 1.482-6.917.617-2.268-.866-4.11-2.524-5.734-4.312-1.624-1.788-3.075-3.735-4.818-5.4-1-.937-2.06-1.804-3.178-2.597-1.124-.816-2.281-1.583-3.47-2.302-.727-.497-1.543-.852-2.404-1.045-.706-.135-1.438.007-2.042.398-.137.094-.261.205-.368.332-.296.413-.52.873-.664 1.36-1.395 3.628-5.137 5.493-8.126 7.967l-2.73 2.259c-.371.308-.783.76-.6 1.207.126.226.328.4.571.49 1.587.784 3.45 1.099 4.758 2.293.478.438.937 1.015 1.584 1.048.342-.02.678-.095.996-.222 1.013-.274 2.096-.058 2.926.583.232.227.502.412.797.548.246.065.504.08.757.046.707-.05 1.457-.113 2.091.203.635.315 1.156 1.058 1.896 1.11.362.027.794-.092 1.14-.059.192.006.37.105.478.265.077.183.13.374.156.57.136.468.594.754.893 1.138.458.59.524 1.394.478 2.14-.15 2.333-1.192 4.52-2.909 6.11-.487.497-1.11.843-1.79.994-.698.146-1.412-.17-1.773-.786-.074-.258-.186-.504-.332-.73-.534-.586-1.733.037-2.224-.59-.306-.391-.087-1.018-.379-1.423-.292-.404-.996-.331-1.537-.355-.635-.033-1.222-.331-1.837-.487-.996-.259-2.038-.163-3.058-.232-.847-.075-1.688-.208-2.517-.398l-4.223-.863c-2.69-.547-5.39-1.1-7.95-2.08-.979-.37-1.965-.829-2.656-1.625-.557-.7-.914-1.535-1.036-2.42-.6-3.54 2.587-6.565 2.989-10.13.142-1.3.664-2.528 1.155-3.735.901-2.158 1.8-4.318 2.696-6.478.145-.402.335-.787.565-1.148.382-.461.813-.88 1.285-1.25 1.258-1.14 2.16-2.62 2.6-4.259.032-.182.109-.354.222-.5.118-.1.247-.183.385-.25.489-.317.696-.927.502-1.475.426-.036.762-.377.79-.803-.024-.18-.013-.362.033-.537.08-.173.28-.26.395-.412.19-.249.123-.597.093-.909-.02-.197-.02-.396 0-.593.073-.703.388-1.358.89-1.854.794-.78 1.923-.578 3.019-.763 1.093-.236 2.16-.577 3.187-1.019 2.881-1.134 5.915-1.834 9.002-2.08 3.102-.243 6.218.253 9.091 1.447.418.17.813.392 1.173.663.255.197.465.447.614.733.122.351.273.692.451 1.019.356.484 1.026.64 1.415 1.097.388.458.422 1.231.744 1.798.461.81 1.53 1.184 1.85 2.063.099.279.112.584.185.873.18.723.717 1.293 1.192 1.864 1.741 2.08 2.855 4.61 3.214 7.297.107-1.682 1.239-3.171 2.657-4.1.382-.249.823-.524.9-.975.096-.57-.459-1.078-.422-1.658.04-.284.155-.552.332-.777.633-.916 1.327-1.788 2.079-2.61.408-.448.866-.995.697-1.585-.13-.442-.581-.7-.83-1.085-.297-.469-.284-1.07.033-1.526.232-.315.601-.544.714-.919.13-.44-.16-.918-.07-1.373.122-.364.363-.676.684-.885.44-.401.942-.73 1.484-.975.877-.332 1.853-.21 2.783-.08 1.554.216 3.297.547 4.174 1.847.561.813.847 2.047.428 2.916z"/>
            <path fill="#000" d="M85.748 76.214c-.02.514-.083 1.088-.482 1.41-.347.222-.759.319-1.169.275h-.09c.137-.69.977-1.084 1.123-1.784.05-.435-.082-.87-.365-1.204-.71-.959-1.853-1.49-2.989-1.878-3.208-1.098-6.645-1.355-9.98-.746-.908.148-1.79.419-2.624.806-.276.173-.542.36-.797.564-.2-.336-.326-.71-.372-1.098.001-.387.135-.761.379-1.061.547-.647 1.33-1.05 2.175-1.118.836-.065 1.678-.02 2.503.133l8.175 1.174c.631.09 1.265.179 1.886.331.59.103 1.146.346 1.62.71.977.81 1.056 2.232 1.007 3.486zM50.418 116.991c-.501 1.917-2.009 3.41-2.783 5.238-1.165 2.736-.64 6.083-2.287 8.557-.535.752-1.18 1.417-1.916 1.974-.408.346-.854.645-1.329.892-.492.271-1.07.342-1.613.199-.7-.24-1.123-.995-1.192-1.725-.025-.24-.025-.48 0-.72l.02.053c.288.697.76 1.427 1.504 1.55.564.04 1.12-.156 1.534-.541 1.096-.88 1.733-2.19 2.34-3.453.476-.911.853-1.871 1.123-2.863.133-.563.196-1.14.332-1.704.631-2.74 2.78-4.976 3.254-7.752.039-.19.048-.387.027-.58-.063-.253-.159-.496-.286-.723-.115-.257-.2-.527-.252-.803.664.239 1.368.607 1.577 1.277.086.372.067.761-.053 1.124zM45.404 112.235c-.307.802-.824 1.508-1.498 2.043-.945.72-2.052 1.198-3.224 1.393-.545.14-1.118.132-1.66-.02-.737-.255-1.268-.945-2.022-1.144-.538-.146-1.116-.017-1.66-.096-.98-.136-1.74-.882-2.53-1.48-2.421-1.817-5.599-2.404-8.02-4.222-.107-.066-.196-.158-.258-.269-.047-.119-.064-.247-.05-.374.009-1.103.257-2.19.727-3.188.385-.696.844-1.348 1.368-1.947 2.168-2.653 4.346-5.327 6.943-7.565 1.09-.94 2.278-1.815 3.653-2.24.763-.235 2.27-.457 3.2-.059-.137.094-.26.205-.368.332-.296.413-.52.873-.664 1.36-1.398 3.631-5.14 5.496-8.129 7.97l-2.73 2.259c-.371.308-.783.76-.6 1.207.126.226.328.4.571.49 1.587.784 3.45 1.099 4.758 2.293.478.438.937 1.015 1.584 1.048.342-.02.678-.095.996-.222 1.013-.274 2.096-.058 2.926.583.232.227.502.412.797.548.246.065.504.08.757.046.707-.05 1.457-.113 2.091.203.635.315 1.156 1.058 1.896 1.11.369.027.8-.099 1.146-.059z" opacity=".1"/>
            <path fill="#3F3D56" d="M14.866 67.219c-.631.405-1.302.862-1.56 1.565-.213.574-.114 1.231-.37 1.788-.255.557-.83.946-.956 1.543-.09.434.087.892 0 1.326-.075.226-.136.457-.182.69-.034.494.391.896.806 1.171 1.792 1.164 4.031 1.41 6.034.663.886-.331 1.687-.872 2.537-1.296.829-.477 1.777-.707 2.732-.664.548.06 1.073.259 1.62.332.55.108 1.118-.06 1.518-.451.17-.234.283-.502.332-.786.462-1.821.253-3.752-.186-5.583-.438-1.83-1.102-3.592-1.57-5.413-.332-1.35-.588-2.733-1.143-4.01-.554-1.277-1.487-2.464-2.792-2.952-.103-.05-.22-.065-.332-.043-.084.035-.158.09-.216.16-1.032 1.092-1.81 2.4-2.278 3.827-.521 1.589-.664 3.274-1.142 4.87-.206.663-.472 1.551-.996 2.059-.525.507-1.262.822-1.856 1.204z"/>
            <path fill="#000" d="M27.387 73.09c-.056.285-.175.553-.348.786-.4.392-.969.56-1.518.448-.544-.067-1.07-.27-1.617-.332-.956-.044-1.904.186-2.733.663-.85.425-1.66.952-2.54 1.294-1.287.487-2.693.567-4.028.229-.708-.178-1.382-.474-1.992-.876-.418-.272-.84-.663-.807-1.17.047-.233.108-.463.183-.687.086-.435-.086-.893 0-1.327.126-.597.704-.995.956-1.546.253-.55.156-1.21.365-1.784.26-.707.933-1.161 1.564-1.57.631-.407 1.382-.719 1.886-1.213.066-.077.124-.16.176-.245.364-.561.631-1.179.79-1.828.489-1.599.622-3.28 1.14-4.872.47-1.427 1.248-2.733 2.28-3.825.056-.071.13-.126.213-.159.112-.023.229-.009.332.04 1.302.49 2.235 1.678 2.793 2.955.558 1.277.793 2.654 1.142 4.007.465 1.82 1.132 3.589 1.57 5.416.439 1.828.655 3.771.193 5.596zM37.262 32.638c-3.233 1.026-6.721-.547-8.088-3.649.025-.31.07-.62.132-.925.332-1.526 1.754-.969 2.876-.564 1.35.438 2.657 1.004 3.901 1.688.38.195.709.474.963.816.492.733.296 1.708.216 2.634z" opacity=".1"/>
            <ellipse cx="35.257" cy="25.984" fill="#BE6F72" rx="6.641" ry="6.634"/>
            <path fill="#000" d="M53.277 75.557c0 .551-.747.727-1.302.697-1.992-.116-3.941-.663-5.914-.498-2.493.226-4.784 1.602-7.285 1.729-.963.05-1.942-.093-2.892.082-1.228.23-2.324.976-3.576 1.082-1.086.093-2.158-.315-3.244-.272-.76.045-1.5.255-2.168.617.072-.703.387-1.358.89-1.854.793-.78 1.922-.578 3.018-.763 1.093-.236 2.16-.577 3.188-1.019 2.88-1.134 5.914-1.834 9.001-2.08 3.1-.246 6.216.247 9.088 1.437.418.17.813.392 1.173.663.018.058.026.119.023.18z" opacity=".1"/>
            <path fill="#E3E8F4" d="M32.185 38.097l-2.69-.995-1.135-.418c-.463-.194-.95-.323-1.448-.385-1.301-.1-2.527.767-3.22 1.871-.694 1.105-.957 2.421-1.18 3.705-.305 1.756-.564 3.518-.776 5.287-.23 1.597-.346 3.209-.349 4.823.076 4.106.946 8.156 1.903 12.153.468 1.772.822 3.572 1.059 5.39.08.749.116 1.502.196 2.255.086.846.226 1.682.365 2.52l.8 4.767c.996-.707 2.129-1.327 3.354-1.363 1.086-.04 2.162.365 3.244.272 1.245-.103 2.348-.85 3.576-1.078.95-.176 1.93-.037 2.896-.083 2.497-.126 4.791-1.506 7.281-1.728 1.976-.18 3.939.378 5.918.494.55.033 1.298-.143 1.298-.697 0-.384-.385-.64-.72-.832-1.582-.95-3.086-2.023-4.5-3.207-1.308-1.035-2.636-2.097-3.536-3.496-2.168-3.367-1.425-7.921-3.274-11.473-1.504-2.886 0-6.667 0-9.921 0-1.622 0-3.264-.382-4.84-.239-.88-.536-1.745-.89-2.586l-1.292-3.267c-.026-.096-.08-.182-.152-.25-.087-.059-.19-.09-.296-.089-.776-.046-1.54.199-2.145.687-.608.494-.996 1.204-1.594 1.718-.654.567-1.497 1.065-2.31.766z"/>
            <path fill="#0D2E7E" d="M36.525 36.213c.213-.909.442-1.854 1.05-2.564.607-.71 1.716-1.084 2.5-.577.89.577.926 1.91 1.686 2.654.665.636 1.66.686 2.564.77 1.624.147 3.219.522 4.738 1.114.296.091.566.253.787.47.415.472.332 1.195.538 1.782.282.756 1.063 1.237 1.365 1.99.332.836 0 1.771-.28 2.63-.5 1.542-.816 3.144-1.304 4.693-.488 1.55-1.182 3.075-2.324 4.243-.505.517-1.256.995-1.92.686l-.255 1.841c-.075.389-.075.789 0 1.177.078.398.378.715.77.816.05.286.352.422.598.578.366.25.617.636.696 1.072.08.437-.02.886-.275 1.25-.209.281-.518.503-.617.838-.15.485.206.996.637 1.26.432.266.94.389 1.378.644.91.524 1.398 1.556 1.71 2.558.233.756.425 1.575.996 2.126.22.209.482.368.691.587.362.427.571.963.594 1.522.091.693-.061 1.397-.431 1.99-.664.949-1.903 1.23-2.989 1.659-1.763.723-3.214 2.016-4.768 3.118-.633.509-1.378.859-2.175 1.021-1.076.143-2.135-.332-3.217-.375-.648.006-1.292.091-1.92.252l-1.992.432c.107-1.543-.743-3.088-1.218-4.558-.897-2.766-1.063-5.725-.85-8.623.212-2.9.803-5.759 1.388-8.604.408-1.99.368-4.07.996-6.004.587-1.86 1.428-3.648 1.736-5.585.505-3.135-1.593-5.792-.883-8.883z"/>
            <path fill="#0D2E7E" d="M51.63 42.346c.183.337.312.7.382 1.078.153.584.44 1.125.84 1.579.334.294.63.628.883.995.306.577.19 1.28.332 1.91.166.687.648 1.284.717 1.99.002.203.021.405.057.604.216.803 1.398.995 1.66 1.798.176.52-.126 1.088-.07 1.635.041.17.052.345.03.517-.075.196-.207.365-.378.485-1.1 1.048-1.86 2.4-2.185 3.884-.32 1.475-.488 2.978-.502 4.487l-1.298-1.714c-.137-.208-.313-.389-.518-.531-.166-.1-.359-.15-.528-.249-.491-.279-.684-.869-.873-1.4-.526-1.469-1.313-2.83-2.324-4.02-.528-.62-1.143-1.243-1.259-2.05-.035-.37-.015-.743.06-1.107.332-2.173.687-4.398 1.746-6.325.495-.903 1.136-1.719 1.61-2.634.32-.607.768-2.186 1.618-.932zM18.874 44.432c.006.28-.066.555-.206.796-.26.3-.665.428-1.05.332-.378-.095-.734-.261-1.049-.49l-2.776-1.755c-.516-.312-1.014-.653-1.49-1.022-.729-.614-1.39-1.305-1.97-2.06-1.613-1.99-3.041-4.15-4.838-5.97-.488-.498-.996-.975-1.467-1.496-.645-.753-1.237-1.548-1.773-2.382-.518-.766-1.056-1.615-.967-2.53.053-.518.303-.995.376-1.51.073-.514-.123-1.14-.621-1.28-.06-.014-.12-.024-.18-.03-.098-.01-.195-.031-.289-.063-.461-.192-.391-.905-.06-1.28.333-.375.824-.584 1.126-.995.14-.244.298-.478.472-.7.222-.19.488-.323.773-.388 1.916-.564 3.942-.64 5.894-.222.332.073.71.206.81.527.04.157.04.321 0 .478-.146.654-.23 1.32-.252 1.99 0 .14.007.28.023.418.156 1.406 1.07 2.597 1.96 3.695 1.055 1.307 2.128 2.604 3.204 3.897.582.75 1.232 1.444 1.942 2.073.664.55 1.524.995 2.042 1.702.422.57.286 1.35.332 2.036.155 2.073.166 4.155.034 6.23z"/>
            <path fill="#BE6F72" d="M61.043 58.27c.328-.318.624-.668.884-1.045.279-.466.502-.964.664-1.482l1.926-5.457c.305-.862.61-1.728.996-2.567.398-.905.87-1.778 1.305-2.653 1.118-2.305 1.984-4.723 2.58-7.214.105-.343.14-.702.103-1.058-.093-.574-.528-1.022-.943-1.43-.418-.45-.893-.843-1.415-1.167-.529-.329-1.168-.432-1.773-.286-.85.249-1.385 1.118-1.58 1.99-.196.873-.123 1.765-.206 2.654-.12 1.274-.558 2.504-.665 3.781-.056.74 0 1.486-.09 2.222-.163.967-.5 1.897-.995 2.743-1.08 2.017-2.537 3.808-4.294 5.274-.481.355-.914.77-1.288 1.237-.312.467-.524.993-.621 1.546-.22.842-.125 1.735.269 2.51.541.923 1.58 1.327 2.573 1.533 1.342.279 1.65-.179 2.57-1.13z"/>
            <path fill="#3F3D56" d="M35.297 16.372c.584-1.097 1.769-1.738 3.008-1.629 1.245.22 2.257 1.129 2.61 2.342.156.494.219 1.041.491 1.466.412.64 1.176.826 1.747 1.29.689.64 1.09 1.529 1.115 2.468.032.95-.118 1.896-.441 2.79-.137.38-.248.77-.332 1.167-.067.385-.073.776-.133 1.16-.149 1.009-.698 1.914-1.524 2.512-.117.095-.262.147-.412.149-.259-.03-.418-.332-.515-.604-.528-1.522-.401-3.383-1.374-4.597-.443-.49-.978-.887-1.574-1.17-.243-.157-.517-.26-.804-.302-.42.022-.826.17-1.162.424-.7.47-1.478.813-2.298 1.015-.828.196-1.7.008-2.374-.51-.458-.379-.793-.946-1.301-1.241-.508-.295-1.04-.279-1.541-.481-.648-.275-1.132-.833-1.312-1.513-.18-.68-.037-1.404.389-1.963.332-.398.823-.624 1.119-1.065.382-.57.348-1.353.531-2.036.22-.878.849-1.595 1.69-1.928.82-.277 1.725-.088 2.364.495.332.298.598.683.923.995.653.624 1.579.874 2.458.663"/>
            <path fill="#000" d="M40.755 65.192c-.395.352-.535.91-.352 1.407.073.156 3.5-.504 3.862-.554.903-.13 2.487-.067 3.095-.892 1.082-1.463-2.271-1.138-2.886-1.085-1.169.1-2.829.259-3.719 1.124z" opacity=".1"/>
            <path fill="#3F3D56" d="M9.583 22.405c-.147.654-.231 1.32-.252 1.99-.997.203-2.033-.13-2.989-.46l-2.746-.936c-.347-.221-.806-.136-1.05.196-.44.457-1.048 1.326-1.66 1.84-.098-.01-.195-.031-.288-.063-.462-.192-.392-.905-.06-1.28s.823-.584 1.126-.995c.14-.244.298-.478.471-.7.222-.19.488-.323.774-.388 1.915-.564 3.941-.64 5.894-.222.332.073.71.206.81.527.032.164.022.333-.03.491z"/>
            <path fill="#000" d="M9.583 22.405c-.147.654-.231 1.32-.252 1.99-.997.203-2.033-.13-2.989-.46l-2.746-.936c-.347-.221-.806-.136-1.05.196-.44.457-1.048 1.326-1.66 1.84-.098-.01-.195-.031-.288-.063-.462-.192-.392-.905-.06-1.28s.823-.584 1.126-.995c.14-.244.298-.478.471-.7.222-.19.488-.323.774-.388 1.915-.564 3.941-.64 5.894-.222.332.073.71.206.81.527.032.164.022.333-.03.491zM34.702 85.375c.478.16.996.392 1.159.87l-3.845-.976-1.992-.507c-.352-.09-1.614-.193-1.847-.468-.332-.405.847-.126 1.06-.096.644.096 1.288.195 1.929.312 1.209.215 2.37.57 3.536.865zM36.193 88.775c-.332-.222-1.285-.196-1.693-.292-.598-.143-1.186-.332-1.774-.514-1.192-.388-2.374-.83-3.599-1.114-.226-.05-.996-.063-.96-.349.037-.285.77-.384.953-.398 1.086-.08 2.441.428 3.45.79 1.287.46 2.505 1.091 3.623 1.877zM33.756 82.344c-1.219-.332-2.324-1.088-3.58-1.234-.327.012-.648-.086-.913-.279-.147-.145-.25-.329-.295-.53.84-.044 1.816.311 2.58.646.42.18.824.396 1.208.644.28.169.698.656 1 .753z" opacity=".1"/>
            <path fill="#0D2E7E" d="M56.986 52.645c-.426 2.85 1.308 5.58 4.07 6.411-.162.786-.976 1.22-1.55 1.781-.81.786-1.229 1.964-2.185 2.56-1.066.664-2.437.406-3.652.127-.11-.012-.213-.066-.286-.15-.025-.039-.043-.083-.053-.129-.402-1.469-.664-3.038-.252-4.51.332-1.254 1.129-2.322 1.766-3.43.638-1.108.697-2.295 2.142-2.66zM27.298 33.626c-1.286.093-2.534.473-3.653 1.111-.744.425-1.507.995-2.358.892-.5-.056-.996-.331-1.484-.199-.275.111-.531.263-.76.451-.236.188-.554.239-.837.133l-.332 4.59c-.126 1.745-.249 3.526.17 5.228.215.869.69 1.658.743 2.54.053.883-.026 1.788.037 2.68.06.827.242 1.64.289 2.465.093 1.559-.293 3.105-.665 4.62-.56 2.236-.9 4.521-1.992 6.545-.305.56-.664 1.13-.664 1.767 0 .08 0 .156.02.233-.332.182-.64.354-.923.534-.63.408-1.305.862-1.564 1.568-.21.574-.113 1.231-.365 1.785-.253.554-.83.949-.957 1.546-.09.434.083.892 0 1.326-.075.225-.136.454-.182.687-.033.497.388.899.807 1.17.61.402 1.283.698 1.992.876l1.982-7.86c1.808-3.339 3.311-6.832 4.493-10.439.338-1.179.772-2.328 1.298-3.436.376-.627.709-1.278.996-1.95.303-.836.332-1.741.478-2.624.174-1.03.435-2.043.78-3.028.36-1.065.774-2.126.848-3.244.11-1.599-.472-3.287.146-4.766.262-.554.603-1.067 1.012-1.523.857-1.048 1.637-2.146 2.494-3.194-.445-.474-1.185-.524-1.85-.484z"/>
            <g fill="#000" opacity=".1">
                <path d="M9.759.355l-.415.03-.047.033c.156-.006.31-.027.462-.063zM17.356 7.24c-.07.66-.212 1.31-.425 1.938-.137.38-.248.77-.332 1.167-.066.385-.073.776-.133 1.161-.148 1.008-.698 1.913-1.524 2.51-.116.096-.261.148-.412.15-.259-.03-.418-.331-.514-.603-.528-1.523-.402-3.384-1.375-4.598-.443-.49-.977-.887-1.574-1.17-.243-.157-.517-.26-.803-.302-.422.022-.826.17-1.163.424-.7.47-1.478.813-2.297 1.015-.828.196-1.7.008-2.375-.51-.458-.379-.793-.946-1.301-1.241-.508-.295-1.04-.279-1.54-.481C.952 6.43.475 5.885.291 5.22c-.011-.04-.02-.083-.026-.125-.083.37-.074.755.026 1.12.184.665.66 1.21 1.295 1.48.502.202 1.066.206 1.54.481.476.275.844.862 1.302 1.24.674.52 1.547.707 2.375.511.819-.202 1.597-.545 2.297-1.015.337-.254.741-.402 1.163-.424.286.042.56.145.803.302.59.288 1.116.69 1.55 1.18.974 1.214.847 3.075 1.375 4.598.097.275.256.573.515.603.16.001.314-.056.435-.159.83-.6 1.38-1.509 1.527-2.52.06-.386.067-.777.133-1.162.084-.396.195-.786.332-1.167.324-.894.474-1.84.442-2.79l-.02-.132z" transform="translate(26.896 14.926)"/>
            </g>
        </g>
        <g>
            <path fill="url(#9n7eukzaob)" fill-rule="nonzero" d="M73.608 54.736c-.766-.255-5.28-3.81-5.62-5.42-.343-1.61 2.385-16.604 2.385-16.604s-.252 0-.664-.05v-.24l.561-19.698s2.3-13.22-2.044-12.45c-4.344.77-1.62 12.45-1.62 12.45s-.494 5.929-.842 7.707c-.332 1.715-1.852 8.702-.817 10.873.038.077.08.152.127.225 0 0 .172 7.452-1.703 8.47-1.788.969-2.532 5.843-2.595 6.28l-.096-.04c-.534-.333-1.003-.76-1.384-1.26-.04-.049-.07-.102-.106-.155 2.532-2.837 2.447-7.136-.196-9.871-.592-.613-1.287-1.119-2.054-1.494-.022-.632-.172-1.252-.441-1.824-.863-1.838-5.641-4.24-9.036-4.297-1.566-.046-2.85.397-3.319 1.616-.238.618-.165 1.322-.265 1.963-.2 1.322-1.052 2.357-2.147 3.18-.442-.492-.92-.95-1.43-1.372-1.109-.846-3.319-3.635-3.319-3.635s-6.899-7.116-7.41-9.066c-.51-1.95-7.403-13.659-8.936-11.62-1.533 2.04 5.28 10.926 5.28 10.926s1.294 3.23 2.29 4.32c.995 1.09 8.627 12.129 8.627 12.129l.365.753c-1.613.846-3.086 1.924-3.607 3.603-.763 2.472.906 4.957 2.06 7.27 2.25 4.515 2.572 10.272-.331 14.397-2.602 3.642-7.115 5.373-11.339 6.887 2.04 1.596 4.575 2.434 7.168 2.37-.976 2.816-4.434 3.748-7.38 4.27 1.546 1.48 3.76 2.019 5.883 2.346 1.04.176 2.094.26 3.15.248h.258l.259-.02c.36-.024.718-.069 1.072-.135 1.533-.311 3.023-1.144 3.806-2.492.664-1.154.896-2.727 2.1-3.305.314-.141.652-.22.996-.235h-.037.684l5.02.05h.641c1.417-.033 2.93-.278 3.65-1.444.297-.567.453-1.196.455-1.835.106-1.583 0-3.212.043-4.808.428 2.905.876 7.432-.189 9.105-.865 1.267-1.914 2.4-3.113 3.36-.301.253-.577.534-.823.84-.162.116-.258.179-.258.179l-.103.307c-.378.571-.653 1.205-.81 1.87-.058.172-.08.353-.063.533.116.234-.83 1.203-.554 1.61-2.363 2.759-2.81 6.94-2.81 6.94l-4.315 6.523c-2.216 5.8-5.535 6.395-5.535 6.395s-7.795-5.208-8.007-5.463c-.212-.254-3.192-1.526-3.192-1.526-.352-.614-.888-1.102-1.533-1.395-1.022-.423-1.109-1.983-1.109-1.983-.126-3.685-2.3-3.966-2.3-3.966-1.752-.149-3.089.162-4.118.73l-.311.024c-1.507.122-3.319.257-5.31.39-5.538.363-6.856 3.936-6.856 3.936s-.68.763.213 1.59c.892.826 6.607 0 6.849-.02-.436.046-.876.016-1.3-.09.898-.033 2.136-.066 3.191-.066h.256c-.067.557-.099 1.118-.096 1.68 0 1.057 2.936 1.734 2.936 1.734l8.943 7.932s5.622 2.502 9.199 6.1c3.577 3.6 6.74.493 6.74.493 3.786-.932 14.68-14.049 14.69-14.062 0 .383.23 13.14.664 15.701.017.13.05.258.096.38.511 1.101-.172 4.108-.468 5.378-.188 1.062-.26 2.14-.216 3.219 0 0-4.084 15.533-3.746 16.898.338 1.364-2.213 7.707-2.213 7.707v5.287l.444-.023c-.058.085-.11.174-.159.265l-.03.056s2.725.591 4.556.423c1.832-.169 4.978 1.404 4.978 1.404s1.065.503 4.344.714c3.278.212 3.278-1.44 3.278-1.44-.375-2.251-5.555-3.005-5.714-3.028-.418-.261-.81-.545-1.132-.79l-.066-.053c.022-.05.04-.1.056-.152.555-2.247-2.512-3.222-2.512-3.222v-.549c1.991-1.017 2.386-8.004 2.386-8.004s2.987-8.64 3.405-10.08c.418-1.441 0-3.6 0-3.6l.299-1.863s.64-1.27.64-1.524c.083-.645.332-1.257.724-1.778.467-.552-.512-1.864-.512-1.864l.853-2.2v-2.417l1.991-8.764s2.088-10.209 1.364-13.55c-.723-3.342.853-5.04.853-5.04-.142.074-.288.14-.438.198.2-.459.371-.929.514-1.408l4.48.552v.066h1.616s-.51-6.28-.51-8.81c0-2.532 1.721-11.617 1.721-11.617s.767-8.88 0-9.135zm-19.887-7.33c0 .247-.023.505-.04.77l-.09.135-.165-.139-.202.314-.06.03c-.438-.225-.664-1.51-.98-1.233l-.042.037c-.07-.08-.14-.103-.213-.037l-.066.056v-.294c.607.156 1.231.235 1.858.235.004.043 0 .086 0 .126zm14.9 29.241h.096l-.16.417c.02-.14.04-.275.064-.417zm-16.356 74.946l-.611-.152.332-.057.308.202.037.026-.066-.02zm6.238-.89c-.202-.105-.408-.227-.607-.353.066.036.328.172.607.354z" transform="translate(1 24.5)"/>
            <path fill="#F86D70" d="M70.824 70.404L66.806 80.835 67.781 80.835 64.002 83.836 70.824 84.682z" transform="translate(1 24.5)"/>
            <path fill="#000" d="M70.824 70.404L66.806 80.835 65.794 80.564 64.002 83.836 70.824 84.682z" opacity=".1" transform="translate(1 24.5)"/>
            <path fill="#F86D70" d="M64.523 77.077L70.824 77.077 73.137 58.123 64.523 58.123z" transform="translate(1 24.5)"/>
            <path fill="#000" d="M64.523 77.077L70.824 77.077 73.137 58.123 64.523 58.123z" opacity=".1" transform="translate(1 24.5)"/>
            <path fill="#FBBEBE" d="M52.215 62.611l1.36-.228 3.126-.528s9.388-2.109 11.326-2.28c1.174-.155 2.319-.48 3.398-.966.508-.218.83-.383.83-.383l-3.382-6.15-5.246-3.874s-3.319-.704-4.722-2.627c-.637-.841-.8-1.947-.435-2.935.856-2.644-5.114 2.528-5.114 2.528s.057 1.24 0 2.82c0 .31-.03.634-.053.964 0 .218-.03.436-.053.661-.146 1.57-.445 3.186-1.035 4.151-1.444 2.36 0 8.847 0 8.847z" transform="translate(1 24.5)"/>
            <path fill="#000" d="M53.356 48.12h.133c.239 0 .431-.506.664-.53 1.868-.178 3.574-.568 4.758-1.886-.635-.84-.798-1.945-.434-2.932.856-2.644-5.114 2.525-5.114 2.525s.063 1.243-.007 2.822z" opacity=".1" transform="translate(1 24.5)"/>
            <path fill="#FBBEBE" d="M46.09 40.624c-.002 1.921.764 3.765 2.129 5.123 1.364 1.36 3.215 2.122 5.144 2.121.239 0 .474 0 .71-.033 3.906-.381 6.804-3.78 6.548-7.681-.255-3.9-3.571-6.896-7.494-6.77-3.923.128-7.037 3.331-7.038 7.24z" transform="translate(1 24.5)"/>
            <path fill="#3F3D56" d="M43.856 29.628c-.24.615-.166 1.303-.262 1.954-.355 2.35-2.755 3.757-4.925 4.742-2.17.985-4.619 2.152-5.31 4.422-.756 2.456.897 4.918 2.045 7.221 2.236 4.488 2.555 10.213-.332 14.317-2.565 3.636-7.035 5.36-11.243 6.874 2.025 1.587 4.542 2.421 7.118 2.36-.965 2.8-4.4 3.728-7.327 4.244 1.537 1.474 3.737 2.009 5.844 2.333 1.536.238 3.113.393 4.646.086 1.533-.308 2.986-1.137 3.776-2.479.664-1.147.89-2.71 2.087-3.288.541-.212 1.124-.297 1.703-.248l4.977.053c1.55 0 3.385-.12 4.185-1.438.295-.563.45-1.189.451-1.824.216-3.252-.412-6.69.932-9.657.405-.896-2.193-2.314-1.92-3.262.935-3.262 1.17-5.83 1.16-9.224 0-2.627 1.716-4.891 3.133-7.109 1.417-2.217 2.602-5.017 1.483-7.396-1.26-2.654-10.731-6.51-12.221-2.68z" transform="translate(1 24.5)"/>
            <path fill="#FBBEBE" d="M50.483 150.64l1.267.837.196.129.037.023 1.503.991 3.51.589 3.087-.212s.889-1.85-.508-1.808c-.447-.022-.884-.148-1.274-.366l-.193-.096c-.202-.106-.405-.225-.604-.35-.414-.262-.806-.546-1.121-.787-.465-.357-.773-.628-.773-.628l-5.127 1.679z" transform="translate(1 24.5)"/>
            <path fill="#000" d="M51.767 151.477l.196.129.036.023 1.503.991 3.511.589 3.086-.212s.89-1.85-.507-1.808c-.448-.022-.884-.148-1.275-.366.246.191.452.4.472.575.056.472-2.284 1.322-2.284 1.322l-3.298-.87s-.56-.158-1.327-.357l-.073-.02-.04.004z" opacity=".1" transform="translate(1 24.5)"/>
            <path fill="#3F3D56" d="M46.126 152.283s2.704.589 4.523.42c1.818-.168 4.95 1.391 4.95 1.391s1.06.496 4.314.708c3.256.211 3.256-1.435 3.256-1.435-.372-2.237-5.515-2.974-5.675-3.007.063.033.332.168.604.35.365.238.76.549.79.8.056.47-2.283 1.322-2.283 1.322l-3.298-.866s-.561-.162-1.328-.36h-.073c-1.136-.308-2.291-.546-3.458-.71-1.42-.153-2.147 1.05-2.296 1.321-.01.021-.02.044-.026.066z" transform="translate(1 24.5)"/>
            <path fill="#FBBEBE" d="M3.498 92.851l1.436 1.098s.419-.02 1.042-.04h.2c.892-.033 2.123-.066 3.169-.066.675-.03 1.352.007 2.02.112.717.251 1.992-4.085 1.992-4.085l-1.44-.33-.479-.113-.331-.079-1.172-.274-3.55.403-2.496 1.6-.391 1.774z" transform="translate(1 24.5)"/>
            <path fill="#000" d="M3.498 92.851l1.436 1.098s.419-.02 1.042-.04c-.286-.11-.522-.32-.663-.592-.93-2.568 3.68-3.665 3.68-3.665l2.147-.092.418-.02h.332l-.478-.113-.332-.079-1.171-.274-3.551.403-2.495 1.6-.365 1.774z" opacity=".1" transform="translate(1 24.5)"/>
            <path fill="#3F3D56" d="M.664 94.011c.87.8 6.563 0 6.802-.02-.432.049-.87.019-1.29-.089-.423-.075-.789-.336-.996-.71-.93-2.572 3.68-3.665 3.68-3.665l2.147-.093.415-.02 5.22-.225.252-1.43s-1.696.158-4.357.37c-1.497.122-3.319.257-5.286.386-5.499.364-6.806 3.917-6.806 3.917s-.667.76.219 1.58z" transform="translate(1 24.5)"/>
            <path fill="#FBBEBE" d="M64.526 31.978c.035.079.078.154.126.225l1.268 1.85 3.298.331.037-1.302.554-19.591S72.092.35 67.778 1.107c-4.314.757-1.606 12.384-1.606 12.384s-.491 5.896-.836 7.667c-.335 1.712-1.839 8.672-.81 10.82zM57.123 80.64l.939 1.6 2.1 3.578s3.81 1.392 4.785.33c.535-.577 1.112-2.597 1.517-4.295.332-1.375.554-2.535.554-2.535l-9.895 1.322z" transform="translate(1 24.5)"/>
            <path fill="#000" d="M57.123 80.64l.939 1.6c.059-.051.112-.108.16-.17 1.061-1.348 5.737-.287 8.242-.2.332-1.376.554-2.536.554-2.536l-9.895 1.306zM9.345 93.836c.675-.03 1.352.007 2.02.113.717.25 1.992-4.085 1.992-4.085l-1.919-.45 5.22-.225.252-1.43s-1.695.158-4.357.37c-.55.315-1.04.723-1.45 1.206l-.08.099c-1.111 1.358-1.522 3.11-1.678 4.402zM50.483 150.64l1.463.966c2.184-.393 4.178-1.011 4.413-1.983.002-.015.002-.03 0-.046-.464-.357-.773-.628-.773-.628l-5.103 1.692zM46.155 152.227c1.929-.095 3.85-.3 5.755-.615-1.138-.31-2.294-.55-3.462-.717-1.417-.152-2.143 1.051-2.293 1.332z" opacity=".1" transform="translate(1 24.5)"/>
            <path fill="#3F3D56" d="M9.504 95.505c0 1.054 2.917 1.729 2.917 1.729l8.883 7.875s5.582 2.485 9.132 6.065c3.55 3.579 6.683.505 6.683.505 3.764-.925 14.601-13.983 14.601-13.983s.253 14.912.76 16.006c.508 1.094-.169 4.085-.464 5.35-.187 1.056-.258 2.129-.213 3.2 0 0-4.058 15.457-3.72 16.805.339 1.349-2.2 7.668-2.2 7.668v5.264s9.939-.38 10.486-2.61c.548-2.231-2.492-3.203-2.492-3.203v-.549c1.991-1.011 2.366-7.958 2.366-7.958s2.964-8.593 3.385-10.024c.422-1.43 0-3.582 0-3.582l.295-1.851s.634-1.266.634-1.517c.083-.641.331-1.25.72-1.768.465-.549-.507-1.854-.507-1.854l.846-2.191v-2.4l1.99-8.718s2.075-10.153 1.355-13.48c-.72-3.329.846-5.01.846-5.01-3.395 1.77-5.107-2.172-5.668-3.868-.143-.436-.212-.727-.212-.727s-4.663-1.712-9.003-1.302c-.882.071-1.75.255-2.585.545-4.822 1.729-5.582 8.887-5.582 8.887l-4.27 6.488c-2.2 5.77-5.499 6.359-5.499 6.359s-7.738-5.18-7.964-5.434c-.226-.254-3.172-1.517-3.172-1.517-.349-.61-.882-1.096-1.524-1.388-1.015-.423-1.098-1.983-1.098-1.983-.126-3.665-2.283-3.966-2.283-3.966-7.486-.62-7.443 7.086-7.443 8.137z" transform="translate(1 24.5)"/>
            <path fill="#F86D70" d="M52.557 60.804H57.123000000000005V74.913H52.557z" transform="translate(1 24.5) rotate(-180 54.84 67.858)"/>
            <path fill="#000" d="M52.557 60.804H57.123000000000005V74.913H52.557z" opacity=".1" transform="translate(1 24.5) rotate(-180 54.84 67.858)"/>
            <path fill="#000" d="M64.523 31.949v.03c.035.078.077.153.126.224l1.267 1.85 3.299.331.036-1.302c-1.028-.08-3.371-.36-4.728-1.133z" opacity=".1" transform="translate(1 24.5)"/>
            <path fill="#F86D70" d="M64.652 32.203s.17 7.41-1.692 8.42c-1.862 1.012-2.585 6.28-2.585 6.28s5.641 3.695 6.899 5.321c1.257 1.626 4.144 5.5 3.55 6.425-.594.925 1.44 5.139 1.44 5.139s-3.723 7.581-2.877 10.447c.847 2.865.93 10.443.93 10.443h1.609s-.508-6.233-.508-8.761c0-2.528 1.69-11.54 1.69-11.54s.763-8.845 0-9.096c-.764-.251-5.244-3.79-5.582-5.393-.339-1.603 2.37-16.525 2.37-16.525s-3.469-.149-5.244-1.16z" transform="translate(1 24.5)"/>
            <path fill="#000" d="M52.47 59.495c.155 1.03.532 2.016 1.105 2.888l3.126-.528s9.388-2.109 11.326-2.28c1.174-.155 2.319-.48 3.398-.966-.744-2.625-2.196-4.997-4.198-6.858l-1.191-1.1c-1.756-1.623-3.79-2.918-6.006-3.824.139.116 9.988 8.49 7.831 10.133-2.157 1.643-7.964-2.356-7.964-2.356l-6.604-5.652-.239-.205-.381.592c.194.08.383.17.567.27 2.25 1.231 3.921 3.299 4.646 5.751 1.357 4.545-5.416 4.135-5.416 4.135z" opacity=".1" transform="translate(1 24.5)"/>
            <path fill="#444053" d="M50.44 80.554s6.258 3.453 7.778 1.517c.332-.427 1.032-.612 1.905-.661-.143-.437-.213-.727-.213-.727s-4.662-1.712-9.003-1.303l-.468 1.174z" transform="translate(1 24.5)"/>
            <path fill="#E8E8F0" d="M53.32 48.754l6.842 5.863s5.784 4.012 7.964 2.356c2.18-1.656-7.834-10.136-7.834-10.136 2.211.908 4.244 2.2 6.003 3.814l1.191 1.1c3.133 2.892 3.84 2.892 3.946 7.142.026 1.048-.332 2.552-.608 2.823-1.015.991-1.725 8.193-1.57 9.035.157.843-1.89 8.117-1.227 10.14.664 2.022-8.296-1.011-9.813.929-1.516 1.94-7.775-1.517-7.775-1.517s3.468-8.848 4.314-9.436c.847-.588 1.862-5.14 0-7.244-1.861-2.106-2.027-4.128-2.027-4.128s6.77.416 5.412-4.128c-.773-2.665-2.672-4.863-5.203-6.021l.385-.592z" transform="translate(1 24.5)"/>
            <path fill="#000" d="M62.452 63.666s-2.625 4.927-6.02 6.206c-.109.04-.215.076-.331.11-3.544 1.073 6.616-4.79 6.351-6.316z" opacity=".1" transform="translate(1 24.5)"/>
            <path fill="#FBBEBE" d="M25.744 20.07s1.268 3.203 2.283 4.297c1.016 1.094 8.542 12.046 8.542 12.046l.637 1.322.547 1.127 4.822-.505.332-1.937-.186-.225c-.485-.578-1.805-2.131-2.691-2.809-1.099-.84-3.299-3.619-3.299-3.619s-6.849-7.079-7.357-9.016c-.507-1.936-7.36-13.55-8.88-11.54-1.52 2.01 5.25 10.86 5.25 10.86z" transform="translate(1 24.5)"/>
            <g fill="#000" opacity=".1">
                <path d="M8.542 44.405c-.58-.05-1.162.034-1.703.244-1.194.579-1.42 2.142-2.084 3.289-.776 1.341-2.256 2.171-3.78 2.478-.302.059-.608.1-.915.126.97.094 1.948.052 2.907-.126 1.523-.307 3.003-1.137 3.78-2.478.663-1.147.889-2.71 2.083-3.289.314-.14.652-.219.996-.231l-1.284-.013zM20.328 19.053c0-2.628 1.716-4.891 3.13-7.11 1.413-2.217 2.601-5.016 1.483-7.395-.956-2.033-6.716-4.76-10.041-4.22 3.255.419 7.267 2.554 8.05 4.22 1.118 2.38-.07 5.178-1.483 7.396-1.414 2.218-3.136 4.481-3.13 7.109 0 3.39-.229 5.949-1.164 9.224-.27.942 2.323 2.366 1.924 3.258-1.347 2.975-.716 6.405-.932 9.657-.005.636-.16 1.26-.455 1.825-.663 1.087-2.024 1.368-3.348 1.427h1.158c1.546 0 3.382-.119 4.181-1.437.295-.564.45-1.19.455-1.825.216-3.252-.415-6.685.932-9.657.405-.892-2.193-2.313-1.924-3.258.935-3.252 1.171-5.823 1.164-9.214z" transform="translate(1 24.5) translate(31.193 27.761)"/>
            </g>
            <path fill="#000" d="M37.206 37.729l.547 1.127 4.822-.506.332-1.937-.186-.224c-.514.25-4.367 2.098-5.515 1.54z" opacity=".1" transform="translate(1 24.5)"/>
            <path fill="#000" d="M55.009 50.396s-1.185-1.85-1.862-1.348-.939-1.517-1.327-1.18c-.388.337-1.52 1.276-1.991-.036-.368-1.044-4.377-7.651-6.003-10.308-.418-.688-.68-1.11-.68-1.11s-4.566 2.273-5.665 1.516v1.6l.93.086 4.977 9.254s1.566 2.482 1.46 3.347c-.106.866 2.008 4.657 2.346 4.908.339.251 3.982 4.465 3.982 4.465s1.862 9.099.252 11.627c-1.61 2.528-4.397 4.379-4.397 4.379s-.84 2.442-.716 2.697c.122.254-.976 1.348-.468 1.685.508.337 1.184 2.694 1.184 2.694s2.37-3.791 3.65-4.38c1.282-.588 2.92-8.34 2.92-8.34s.469-4.568.505-7.516c.037-2.948-.113-14.04.903-14.04z" opacity=".1" transform="translate(1 24.5)"/>
            <path fill="#F86D70" d="M54.753 50.396s-1.181-1.85-1.858-1.348-.942-1.517-1.327-1.18c-.385.337-1.517 1.276-1.991-.036-.372-1.044-4.38-7.651-6.003-10.308l-.68-1.11s-4.567 2.273-5.668 1.516v1.6l.932.086 4.978 9.254s1.57 2.482 1.46 3.347c-.11.866 1.99 4.657 2.346 4.908.355.251 3.982 4.465 3.982 4.465s1.862 9.099.255 11.627c-.848 1.27-1.88 2.408-3.062 3.377-.994.816-1.693 1.933-1.991 3.18-.058.17-.078.35-.06.529.123.25-.976 1.348-.468 1.685.508.337 1.191 2.703 1.191 2.703s2.37-3.79 3.65-4.379c1.281-.588 2.924-8.341 2.924-8.341s.465-4.567.504-7.515c.04-2.948-.11-14.06.886-14.06z" transform="translate(1 24.5)"/>
            <path fill="#000" d="M43.166 88.727s3.554.66 4.977 1.682c1.424 1.021-5.412-1.6-5.412-1.6l.435-.082zM51.71 97.696s3.707 3.077 3.043 5.857c-.663 2.779-2.376 9.772-2.376 9.772l-.667-15.629zM19.293 91.78s-5.223.569-4.885 1.243c.339.674 4.885-.621 4.885-.621v-.622zM59.4 117.367s.33.42-1.607 0c-1.938-.42-.508-1.715-.508-1.715l2.114 1.715zM58.735 123.18s-2.654.42-4.078 0c-1.423-.42 4.078 0 4.078 0zM53.273 145.925s-.464-.506-2.79.42c-2.327.925-3.256.968-3.933.66-.677-.307 6.723-1.08 6.723-1.08zM55.855 91.063l-3.298 4.571s1.775-4.002 3.298-4.57zM49.444 49.048s-.143 1.517-2.27 2.109c-2.127.591-2.532 1.07-2.532 1.07M43.916 38.053s-2.808 1.983-5.738 1.563M46.053 80.51s.82.513 2.787-1.728M66.49 56.752c.08-.41-.205-.79-.474-1.11l-.55-.662c-.109-.135-.23-.259-.363-.37-.331-.254-.756-.33-1.101-.558" opacity=".1" transform="translate(1 24.5)"/>
        </g>
        <g>
            <path fill="#2AE9A8" fill-rule="nonzero" d="M99.974 31.543c13.531.8 24.082 12.138 24.026 25.82 0 14.339-11.626 26.073-25.834 26.073H31c-17.053 0-31-14.082-31-31.288 0-16.174 12.14-29.47 27.64-31.035C34.1 8.603 47.017 0 62 0c18.857 0 34.357 13.553 37.974 31.543zm-11.97-6.235c-1.071-1.074-2.81-1.076-3.882-.004L51.185 58.183 39.3 45.265c-1.027-1.116-2.763-1.188-3.88-.16-1.115 1.027-1.186 2.765-.16 3.882l13.82 15.021c.506.55 1.214.87 1.961.886h.059c.725 0 1.424-.288 1.938-.8l34.96-34.9c1.075-1.071 1.076-2.811.006-3.886z" transform="translate(78 23.5)"/>
            <path fill="#FFF" fill-rule="nonzero" d="M27.64 21.113C12.14 22.678 0 35.974 0 52.148c0 17.206 14.67 31.288 29.34 31.288-12.402-6.179-20-14.901-22.794-26.167C2.356 40.37 15.273 26.58 27.64 21.113zM60.86 0C46.923.465 34.537 7.719 27.723 21.113h5.498C36.66 11.351 48.82 1.995 60.86 0z" opacity=".353" transform="translate(78 23.5)"/>
            <path fill="#2A84E9" d="M55.586 111.579L55.586 103.534 59.27 107.242 60.191 106.282 54.928 100.984 49.666 106.282 50.587 107.206 54.271 103.534 54.271 111.579zM85.188 134.756L85.188 126.711 88.872 130.419 89.793 129.459 84.531 124.161 79.268 129.459 80.189 130.382 83.873 126.711 83.873 134.756zM25.984 98.667L25.984 90.621 29.668 94.329 30.589 93.369 25.326 88.072 20.064 93.369 20.985 94.293 24.668 90.621 24.668 98.667zM98.345 101.647L98.345 93.601 102.029 97.309 102.95 96.349 97.687 91.051 92.424 96.349 93.345 97.273 97.029 93.601 97.029 101.647zM35.851 148L35.851 139.954 39.535 143.663 40.456 142.702 35.194 137.405 29.931 142.702 30.852 143.626 34.536 139.954 34.536 148z" opacity=".503" transform="translate(78 23.5)"/>
        </g>
        <rect width="261" height="1" y="179" fill="#262626" rx=".5"/>
    </g>
</svg>
