<svg xmlns="http://www.w3.org/2000/svg" xmlns:xlink="http://www.w3.org/1999/xlink" width="116" height="191" viewBox="0 0 116 191">
    <defs>
        <filter id="prefix__a" width="204.9%" height="157%" x="-52.4%" y="-28.5%" filterUnits="objectBoundingBox">
            <feOffset dy="2" in="SourceAlpha" result="shadowOffsetOuter1"/>
            <feGaussianBlur in="shadowOffsetOuter1" result="shadowBlurOuter1" stdDeviation="10"/>
            <feColorMatrix in="shadowBlurOuter1" result="shadowMatrixOuter1" values="0 0 0 0 0 0 0 0 0 0 0 0 0 0 0 0 0 0 0.4 0"/>
            <feMerge>
                <feMergeNode in="shadowMatrixOuter1"/>
                <feMergeNode in="SourceGraphic"/>
            </feMerge>
        </filter>
        <path id="prefix__b" d="M79 13.021v124.281c-.005 2.943-1.464 5.73-3.977 7.597-.274.204-.56.394-.857.57-1.776 1.072-3.862 1.642-5.996 1.64H14.83c-.864 0-1.726-.093-2.566-.279-4.851-1.071-8.265-5.007-8.264-9.528V13.022c0-5.416 4.85-9.807 10.83-9.807h6.472c-.647 1.436-.462 3.07.494 4.358.956 1.287 2.557 2.06 4.27 2.059h30.41c1.713-.002 3.312-.774 4.268-2.06.956-1.287 1.143-2.92.499-4.357h6.927c5.98 0 10.83 4.39 10.83 9.806z"/>
    </defs>
    <g fill="none" fill-rule="evenodd" filter="url(#prefix__a)" transform="translate(20 18)">
        <mask id="prefix__c" fill="#fff">
            <use xlink:href="#prefix__b"/>
        </mask>
        <use fill="#FFF" xlink:href="#prefix__b"/>
        <g mask="url(#prefix__c)">
            <g>
                <path fill="#484848" d="M16 247H100V259H16z" transform="translate(-18 -112)"/>
                <path fill="#70BDC3" d="M0 19.5H115V247.5H0z" transform="translate(-18 -112)"/>
                <path fill="#FFF" d="M21 87.5H40V106.5H21zM50 87.5H69V106.5H50zM80 87.5H99V106.5H80z" transform="translate(-18 -112)"/>
                <path fill="#E6FEFF" d="M23 128.5H42V147.5H23zM50 128.5H69V147.5H50zM80 128.5H99V147.5H80zM23 167.5H42V186.5H23zM50 167.5H69V186.5H50z" transform="translate(-18 -112)"/>
                <path fill="#E2E2E2" d="M48 213.5H71V247.5H48z" transform="translate(-18 -112)"/>
                <path fill="#E6FEFF" d="M80 167.5H99V186.5H80z" transform="translate(-18 -112)"/>
                <path fill="#328047" d="M30.642 236.234c-2.343 0-4.645.558-6.674 1.62-4.209-3.445-10.266-4.32-15.45-2.234C3.331 237.707-.008 242.364 0 247.5h44c-.498-6.345-6.329-11.264-13.358-11.266z" transform="translate(-18 -112)"/>
                <path fill="#2C3471" d="M72 213.5H91V221.5H72z" transform="translate(-18 -112)"/>
                <path fill="#7EFBF8" fill-opacity=".2" d="M49.959 167.479L69.004 167.479 69.004 186.48zM22.959 167.479L42.004 167.479 42.004 186.48zM22.959 128.479L42.004 128.479 42.004 147.48zM49.959 128.479L69.004 128.479 69.004 147.48zM79.959 128.479L99.004 128.479 99.004 147.48zM79.959 167.479L99.004 167.479 99.004 186.48z" transform="translate(-18 -112)"/>
                <path fill="#F6F6F6" d="M78 220.5h-3v-.605h1.209v-4.634l-1.14.596v-.693l1.233-.664h.57v5.395H78v.605zm5 0h-3v-.497c.76-.915 1.254-1.528 1.48-1.84.227-.311.412-.638.554-.98.141-.342.212-.683.212-1.022 0-.329-.092-.587-.276-.776-.185-.19-.443-.284-.775-.284-.256 0-.598.085-1.029.254l-.089-.588c.39-.178.797-.267 1.222-.267.487 0 .88.148 1.177.444.298.297.447.692.447 1.187 0 .354-.077.704-.23 1.052-.154.348-.35.681-.59 1.001-.24.32-.706.893-1.4 1.72H83v.596zm3.915-3.215c.327.098.59.278.788.539.198.26.297.553.297.878 0 .508-.184.935-.552 1.28-.368.345-.802.518-1.302.518-.426 0-.808-.101-1.146-.303l.122-.553c.353.178.702.266 1.047.266.325 0 .602-.108.832-.325.23-.217.344-.497.344-.838 0-.336-.123-.609-.37-.819-.245-.21-.571-.315-.978-.315h-.163v-.553h.045c.391 0 .714-.1.967-.297.254-.198.381-.465.381-.8 0-.274-.091-.488-.274-.642-.183-.154-.434-.231-.754-.231-.276 0-.586.08-.929.241l-.083-.577c.345-.17.692-.254 1.043-.254.48 0 .875.136 1.186.408.31.271.466.62.466 1.046 0 .295-.095.57-.284.825-.189.255-.417.416-.683.481v.025z" transform="translate(-18 -112)"/>
            </g>
        </g>
        <path fill="#2D2C3D" d="M3.785 167.802l-.338-.302c-4.85 6.918-8.316 11.568-10.398 13.95-2.083 2.383-5.01 5.777-8.78 10.182L-18 211.972l3.576 7.719c5.728 4.118 10.615 6.669 14.659 7.651 6.067 1.473 12.46-7.651 14.83-15.37 2.37-7.72 6.222-22.621 6.222-24.331 0-1.71 1.15-3.5 1.89-4.028.495-.353.769-1.074.823-2.162-5.554-.446-9.938-2.105-13.153-4.978-3.215-2.873-5.569-5.763-7.062-8.67z" mask="url(#prefix__c)"/>
        <path fill="#3F3D56" d="M82 36.2v16.096h-.904v85.345c0 3.471-1.509 6.8-4.196 9.254-2.687 2.455-6.33 3.833-10.13 3.833H14.327c-3.8 0-7.444-1.378-10.13-3.833C1.508 144.441 0 141.112 0 137.641V13.587c0-3.47 1.51-6.8 4.196-9.254C6.883 1.88 10.526.5 14.326.5H66.77c3.8 0 7.443 1.379 10.13 3.833 2.687 2.455 4.196 5.783 4.196 9.254V36.2H82zm-3.953-22.521c0-5.398-4.79-9.774-10.7-9.774h-6.843c.636 1.432.452 3.06-.493 4.342-.944 1.282-2.524 2.052-4.216 2.054H25.752c-1.692 0-3.274-.77-4.218-2.053s-1.127-2.911-.488-4.343h-6.394c-5.909 0-10.699 4.376-10.7 9.774v123.87c0 4.506 3.372 8.429 8.165 9.497.83.185 1.68.278 2.535.277h52.695c2.108.003 4.17-.566 5.924-1.634.293-.175.576-.365.847-.568 2.483-1.86 3.924-4.639 3.929-7.572V13.679z"/>
        <path fill="#07EF8A" d="M72 138.5L64 138.5 64 137.269 70.769 137.269 70.769 130.5 72 130.5zM11.231 22.5L10 22.5 10 14.5 18 14.5 18 15.731 11.231 15.731z"/>
    </g>
</svg>
