<svg xmlns="http://www.w3.org/2000/svg" width="349" height="300" viewBox="0 0 349 300">
    <g fill="none" fill-rule="evenodd" opacity=".8">
        <ellipse cx="34" cy="255.5" fill="#6C63FF" opacity=".1" rx="15" ry="2.5"/>
        <ellipse cx="251" cy="258.5" fill="#6C63FF" opacity=".1" rx="15" ry="2.5"/>
        <ellipse cx="214" cy="279.5" fill="#DF3535" opacity=".1" rx="15" ry="2.5"/>
        <ellipse cx="82" cy="238.5" fill="#6C63FF" opacity=".1" rx="15" ry="2.5"/>
        <ellipse cx="87" cy="281.5" fill="#D3E0FF" rx="87" ry="18.5"/>
        <path fill="#D3E0FF" d="M343.15 206.783c-2.338 5.615-5.408 10.999-9.703 15.128-5.233 5.03-11.732 7.775-18.692 9.087-2.051.38-4.122.648-6.204.8-5.5.421-11.13.141-16.531-.444-13.23-1.438-26.277-4.219-38.939-8.298-2.08-.67-4.148-1.373-6.203-2.112-3.102-1.107-6.176-2.296-9.222-3.566-12.408-5.165-25.235-11.751-38.435-9.708-6.397.992-12.408 3.998-18.82 4.892-4.5.589-9.073.265-13.444-.952-2.116-.564-4.19-1.277-6.204-2.134-4.54-1.966-8.86-4.403-12.89-7.27-9.67-6.731-18.348-15.077-28.53-20.907-11.225-6.43-23.651-9.487-36.31-11.766-2.061-.37-4.13-.725-6.204-1.061-5.858-.964-11.73-1.854-17.517-2.908-5.576-1.025-11.251-2.28-16.105-5.362-3.463-2.199-6.375-5.245-9.047-8.454-4.927-5.948-9.154-12.438-12.597-19.345-.182-.363-.361-.727-.536-1.09-5.361-10.956-8.967-22.9-11.178-35.258-.066-.364-.128-.727-.19-1.09-2.08-12.116-2.84-24.641-2.61-37.076l.022-1.09c.143-6.14.526-12.253 1.095-18.28.409-4.238.956-8.636 3.16-12.198 2.205-3.563 5.796-5.849 9.372-7.753 15.816-8.386 30.965-10.72 47.963-6.656 2.73.65 5.449 1.352 8.168 2.08 2.069.552 4.138 1.122 6.203 1.697 14.28 3.965 28.524 8.185 43.285 9.45 1.426.124 2.853.218 4.28.284 2.825.13 5.65.16 8.475.087 7.276-.203 14.526-.947 21.691-2.224 2.073-.357 4.141-.752 6.204-1.185 8.905-1.85 17.729-4.319 26.41-7.048 1.774-.558 3.545-1.125 5.314-1.701 3.985-1.298 7.97-2.621 11.962-3.908 11.92-3.85 23.896-7.364 36.235-8.782 1.055-.118 2.111-.224 3.167-.316 1.011-.087 2.026-.156 3.036-.207 19.141-1.018 38.501 3.58 55.47 12.99 2.107 1.166 4.175 2.407 6.204 3.723 2.815 1.825 5.544 3.787 8.186 5.888 5.415 4.308 10.484 9.211 14.345 15.103 3.763 5.74 6.204 12.184 7.61 18.96.076.363.149.726.214 1.09 2.062 10.937 1.42 22.667-.894 33.626-.244 1.148-.503 2.3-.773 3.449-.084.363-.172.727-.26 1.09-2.496 10.363-5.685 20.697-4.853 31.293.106 1.334.274 2.657.493 3.965.062.364.124.727.193 1.09 1.628 8.644 5.328 16.845 7.547 25.405 4.165 16.266 2.969 33.434-3.412 48.972z"/>
        <path fill="#EAECF0" d="M82.428 218L251 236.696 251 242 82 222.669zM82 238L79 238 79 159 81.159 159.695 81.183 162.064z"/>
        <path fill="#D3DAE1" d="M84 236.731L82.778 238 82.022 162.36 82 160 83.444 160 83.463 162.501zM33 235.565L80 219 80 220.566 33 237z"/>
        <path fill="#EAECF0" d="M33.84 240L33 236.26 80 220 80 223.224zM251 154L251 258 248.15 258 248.004 161.522 248 158.437z"/>
        <path fill="#D3DAE1" d="M253 154L253 258.108 251 259 251 154.51zM214 255.781L248.558 237 251 238.379 214 258z"/>
        <path fill="#EAECF0" d="M215.081 263L214 258.77 251 239 251 243.102zM210 170.279L210.143 281 214 281 213.429 169z"/>
        <path fill="#D3DAE1" d="M215 169L215 281.105 213.471 282 213 170.023 213.188 169.928z"/>
        <path fill="#EAECF0" d="M34 256L31.032 256 30.015 156.711 30 155 32.839 155 32.861 156.953z"/>
        <path fill="#D3DAE1" d="M36 255.231L34.081 256 33.021 156.953 33 155 35.042 155 35.059 157.143z"/>
        <path fill="#000" d="M213 168.93L215 168 215 172.359 213.052 173zM253 154L253 160.57 250.944 161.162 248.004 162 248 158.926 250.944 154.506z" opacity=".1"/>
        <path fill="#2A84E9" d="M253 141L253 159.58 213.255 173 213 153.13z"/>
        <path fill="#62ACFF" d="M29 139.855L81.363 130 253 141.119 212.902 153z"/>
        <path fill="#000" d="M34.982 156L35 158 32.832 157.822 30.015 157.597 30 156zM83 162L81.334 161.867 79 161.683 79 159 81.308 159.65 82.978 159.65z" opacity=".1"/>
        <path fill="#2A84E9" d="M29 140L29 157.142 213 173 212.745 153.303z"/>
        <path fill="#0A3FC1" d="M175 159L151 159 151 151 175 152.552z"/>
        <path fill="#000" d="M175 159L151 159 151 151 175 152.552z" opacity=".1"/>
        <path fill="#000" d="M119 149L119 162.251 211 169 211 154.889 175.117 152.925 171.552 155.994 156.92 155.012 151.705 151.329z" opacity=".1"/>
        <path fill="#FFF" d="M118 149L118 162.253 210 169 210 154.892 174.117 152.928 170.556 155.996 155.92 155.014 150.705 151.332z"/>
        <path fill="#D48A9B" d="M61.211 146L83 147.448 82.745 154 68.518 154 59 150.46z"/>
        <path fill="#000" d="M61.211 146L83 147.448 82.745 154 68.518 154 59 150.46z" opacity=".1"/>
        <path fill="#000" d="M32 143L32 155.37 116 162 116 148.864 83.602 146.955 80.147 149.502 67.084 148.74 61.708 145.424z" opacity=".1"/>
        <path fill="#FFF" d="M32 142L32 154.37 116 161 116 147.868 83.602 145.955 80.147 148.506 67.084 147.74 61.708 144.424z"/>
        <path fill="#000" d="M35 236.189L36 236 35.497 239.902 35 240zM210.405 142L222 142.817 202.786 149 193 148.237z" opacity=".1"/>
        <path fill="#FFF" d="M210.405 142L222 142.818 202.786 149 193 148.24z"/>
        <path fill="#D3DAE1" d="M210 143.08c.462-.28.954.25 1.456.385.28.078.571 0 .852.078.575.108 1.146.659 1.692.378M209 143.083c.459-.286.954.245 1.456.38.28.078.571 0 .855.078.575.11 1.143.661 1.689.38M208 144.08c.462-.28.957.25 1.456.385.28.078.571 0 .855.078.575.108 1.143.659 1.689.378"/>
        <circle cx="18.5" cy="267.5" r="3.5" fill="#535461"/>
        <circle cx="24.5" cy="280.5" r="3.5" fill="#535461"/>
        <circle cx="85.5" cy="283.5" r="3.5" fill="#535461"/>
        <circle cx="99.5" cy="265.5" r="3.5" fill="#535461"/>
        <path fill="#535461" d="M56 207H61V234H56z"/>
        <path fill="#000" d="M56 229H61V234H56z" opacity=".1"/>
        <path fill="#3A3768" d="M56 231H62V261H56z"/>
        <path fill="#3A3768" d="M98.776 259.782L60 258v7h45c-.916-3.014-3.388-5.087-6.224-5.218zM21.224 259.782L60 258v7H15c.915-3.015 3.388-5.089 6.224-5.218z"/>
        <path fill="#3A3768" d="M55.627 259.622l-31.229 15.006C21.704 275.93 20 278.61 20 281.54V282l36.47-15.5 5.132-.375L91.929 285c.394-2.844-.864-5.666-3.266-7.324L61.602 259l-5.975.622z"/>
        <path fill="#000" d="M61 208v2.952c-.876.032-1.769.048-2.679.048-.786 0-1.56 0-2.321-.037V208h5z" opacity=".1"/>
        <ellipse cx="58" cy="204.5" fill="#3A3768" rx="16" ry="4.5"/>
        <path fill="#000" d="M74 204.504c-.031.506-.278.977-.682 1.302C71.34 207.659 65.23 209 58.004 209c-7.07 0-13.061-1.292-15.182-3.077-.475-.336-.775-.854-.822-1.42C42 202.02 49.165 200 58.004 200 66.843 200 74 202.016 74 204.504z" opacity=".1"/>
        <path fill="#000" d="M74 204.314c-.031.598-.278 1.155-.682 1.54-2.036-.58-3.444-1.058-3.444-1.058s-14.105.898-27.052 1.204c-.475-.397-.775-1.01-.822-1.678 0-2.936 7.165-5.322 16.004-5.322C66.843 199 74 201.374 74 204.314z" opacity=".1"/>
        <path fill="#3A3768" d="M18.147 143.673s5.294 14.265 5.036 22.797c-.259 8.533-4.39 24.578-4.39 24.578s-4.128 12.991 6.455 14.138c10.584 1.146 45.172-.765 45.172-.765s12.911 3.819 17.036 2.163c1.604-.641 2.995-2.053 4.094-3.542 1.217-1.64 1.697-3.7 1.329-5.7-.368-2-1.553-3.762-3.276-4.875-1.927-1.185-4.026-2.073-6.224-2.635-.462-.124-.94-.181-1.42-.171l-45.098.877s-5.031-.764-4.128-5.73c.904-4.964 2.45-20.249 2.45-20.249s.258-18.593-8.776-23.813c-9.035-5.22-8.26 2.927-8.26 2.927z"/>
        <path fill="#000" d="M18.147 143.677s5.294 14.259 5.036 22.79c-.259 8.53-4.39 24.577-4.39 24.577s-4.128 12.986 6.455 14.132c10.584 1.147 45.172-.768 45.172-.768s12.911 3.822 17.035 2.184c1.605-.644 2.996-2.056 4.095-3.541 1.217-1.64 1.697-3.701 1.329-5.701-.368-2-1.553-3.762-3.277-4.875-1.928-1.182-4.026-2.07-6.223-2.635-.462-.125-.941-.181-1.42-.168l-45.098.863s-5.031-.765-4.128-5.732c.904-4.968 2.45-20.243 2.45-20.243s.258-18.59-8.776-23.813c-9.035-5.223-8.26 2.93-8.26 2.93z" opacity=".1"/>
        <path fill="#3A3768" d="M18.147 143.672s5.294 14.263 5.036 22.793c-.258 8.531-4.39 24.574-4.39 24.574s-4.128 12.989 6.452 14.135c10.58 1.146 45.171-.764 45.171-.764s12.912 3.817 17.04 2.183c1.604-.644 2.995-2.056 4.094-3.544 1.217-1.64 1.697-3.7 1.329-5.7-.368-1.999-1.553-3.76-3.276-4.873-1.926-1.191-4.025-2.086-6.224-2.653-.462-.124-.94-.182-1.42-.171l-45.097.877s-5.032-.764-4.128-5.728c.903-4.964 2.45-20.246 2.45-20.246s.257-18.59-8.777-23.81c-9.034-5.218-8.26 2.927-8.26 2.927z"/>
        <path fill="#2F2F2F" d="M109.202 265.844v4.747s22.012.409 26.86.409c4.849 0 11.522-2.454 11.92-4.42.396-1.966-5.563-3.602-7.789-3.681-2.225-.079-2.302-.983-5.165-2.54-1.614-.879-4.065-3.426-5.894-5.479-1.41-1.583-2.448-2.87-2.448-2.87s-11.842-.244-15.259 1.718c-.786.454-1.33 1.34-1.7 2.44-1.232 3.665-.525 9.676-.525 9.676z"/>
        <path fill="#000" d="M110 256c2.56-.854 17.538-1.185 20-1.235-1.453-1.52-2.523-2.756-2.523-2.756s-12.203-.234-15.724 1.65c-.81.436-1.37 1.282-1.753 2.341z" opacity=".1"/>
        <path fill="#50505A" d="M47 183.15l1.291.774.485.29 1.882 1.12c10.059 6.006 37.496 22.28 39 22.164.393-.033 1.574-.207 3.207-.473.433-.069.898-.141 1.386-.225 6.285-1.036 16.73-2.907 17.896-3.423 1.6-.726 1.28 2.457.638 5.153-.642 2.696-1.119 15.623-.4 17.28.72 1.657.4 4.36.4 4.36l-.957 14.505.642 3.08s-2.161 1.745-1.28 2.773c.88 1.028.08 5.472.08 5.472 2.568-.952 19.928-1.268 19.928-1.268s-.734-6.344-.081-7.848c.653-1.504.161-10.464.161-10.464s.4-6.817-.319-8.4c-.719-1.585.239-11.733.239-11.733s.642-6.024.8-18.313c.157-12.288-7.044-12.68-7.044-12.68s-.958-.076-2.418-.214c-2.85-.273-7.605-.789-10.782-1.454-.65-.135-1.293-.305-1.926-.509-3.922-1.322-17.125-1.373-19.286-.421-2.08.916-4.16.069-4.314 0L84.548 180l-16.054 1.355-1.698.146-15.805 1.333-1.1.095-2.891.221z"/>
        <path fill="#000" d="M110.29 195.61c4.465 2.238 8.725-5.693 10.71-10.166-2.73-.27-7.282-.783-10.324-1.444-1.998 3.433-4.668 9.47-.386 11.61z" opacity=".1"/>
        <path fill="#FCC7BE" d="M96 140.721c.096.54.286 1.06.56 1.536 1.709 3.433 6.656 10.502 6.656 10.502 1.47.913 2.713 2.147 3.634 3.606 1.349 2.283 1.745 7.631 1.745 7.631s3.013 11.879 4.438 13.534c.727.826.396 1.317-.098 1.602-1.014.56-1.872 1.358-2.5 2.326-2.08 3.314-5.398 9.895-.728 12.153C116.05 196.68 122 180.596 122 180.596s-1.192-11.407-1.508-13.372c-.317-1.966-2.221-10.073-2.221-10.073s-1.349-3.462-2.141-5.9c-.793-2.437-3.17-5.272-3.17-5.272s-4.285-8.496-5.474-9.755c-.552-.584-1.326-1.32-1.995-1.94-.774-.721-1.414-1.284-1.414-1.284s-8.156 5.839-8.076 7.721z"/>
        <path fill="#2F2F2F" d="M43 264.5l14.265 6.41s18.486.396 21.72-.475c3.234-.87 2.515-4.51-1.725-5.224-4.24-.715-5.25-2.609-6.661-3.48-.952-.587-4.334-4.386-6.428-6.792-1.01-1.157-1.725-1.995-1.725-1.995s-2.745-7.361-10.348-5.7c-1.39.306-2.671.99-3.705 1.978-4.1 3.83-4.455 11.41-4.455 11.41L43 264.5z"/>
        <path fill="#000" d="M47 184.583l1.898 1.125c10.146 6.04 37.82 22.408 39.338 22.291.396-.033 1.587-.208 3.234-.475.436-.07.906-.142 1.398-.226l.056-.092c.814-1.402 1.436-2.905 1.85-4.469 1.695-6.377-6.701-11.24-6.701-11.24l-1.776-1.364c-2.017-3.354-16.548-6.526-16.548-6.526l-1.872-1.26-1.003-.666-.263-.172L64.34 180l-11.382.797-3.382 2.145-.37.226-1.236.8-.969.615zM48 249.255c3.044 10.693 15.76 7.2 15.76 7.2L64 255.1c-1.024-1.181-1.75-2.036-1.75-2.036s-2.785-7.51-10.499-5.815c-1.407.31-2.703 1.004-3.751 2.006z" opacity=".1"/>
        <path fill="#50505A" d="M44.414 201.798c4.711 0 16.84 5.588 16.84 5.588 2.474 1.89 5.828 1.258 5.828 1.258s-5.898 5.902-5.733 8.344c.164 2.442-3.357 6.453-3.357 6.453L47.13 244.608c.802 15.03 16.452 10.861 16.452 10.861l.64-3.542c.96-.473 2.398-5.195 2.398-5.195s0-1.886.956-2.438c.955-.552 2.954-6.219 2.954-6.219s4.313-7.16 4.07-8.101c-.24-.942 3.116-5.743 3.116-5.743s5.67-5.508 5.43-6.493c-.242-.985 4.56-6.024 4.56-6.024 1.737-1.323 3.18-2.983 4.24-4.877.805-1.383 1.42-2.865 1.83-4.408 1.351-5.071-3.774-9.173-5.82-10.576-.495-.339-.81-.52-.81-.52l-1.757-1.345c-.908-1.508-4.374-2.98-7.889-4.13-2.533-.833-5.088-1.504-6.725-1.905-1.098-.263-1.757-.41-1.757-.41l-1.852-1.227-.652-.433-.597-.393-2.251-1.49-5.008.36-6.253.437-3.342 2.121-1.596 1.01-6.242 3.968s-.165 1.511-.216 3.546v.48c-.084 4.087.366 9.876 3.405 9.876z"/>
        <path fill="#FCC7BE" d="M69 112.649l1.64 5.91s2.88 10.168 3.19 10.875c.31.708 7.842 7.882 8.166 8.038.324.155 4.417 2.528 4.417 2.528s.324-13.004 0-16.782c-.027-.831.041-1.663.203-2.478.495-2.965 1.75-7.31 2.79-10.66.87-2.806 1.594-4.908 1.594-4.908s-18.197-.791-17.573 1.022c.235.686.157 1.831-.068 2.98-.377 1.893-1.158 3.786-1.643 3.641-.473-.11-.958-.164-1.443-.163-.663-.028-1.273-.003-1.273-.003z"/>
        <path fill="#000" d="M73 109.98c4.658 3.68 11.312 4.031 16.374.866.887-2.677 1.626-4.682 1.626-4.682s-18.575-.755-17.938.975c.247.654.167 1.746-.062 2.842z" opacity=".1"/>
        <path fill="#FCC7BE" d="M68 98.496c-.001 5.46 3.409 10.384 8.64 12.475 5.231 2.09 11.253.937 15.258-2.924 4.005-3.86 5.203-9.667 3.036-14.712C92.768 88.29 87.663 85 82 85c-3.718-.017-7.289 1.4-9.918 3.934-2.63 2.535-4.099 5.977-4.082 9.562z"/>
        <path fill="#000" d="M69 113.01l1.675 6.048s2.943 10.405 3.26 11.13c.317.724 8.013 8.066 8.345 8.224.331.16 4.512 2.588 4.512 2.588s.332-13.307 0-17.174c-.027-.85.043-1.701.208-2.535l-1.093 4.469.08 8.952.634.485-1.428 2.177v-1.616s-5.099-4.997-5.882-7.097c-.783-2.1-3.642-5.892-3.642-5.892s-3.278-5.545-3.336-6.524c-.062-.74-1.432-2.499-2.033-3.23-.677-.03-1.3-.005-1.3-.005zM96 140.505c.091.526.27 1.031.53 1.495 1.643-.168 7.23-1.236 8.47-7.75-.733-.702-1.34-1.25-1.34-1.25s-7.735 5.672-7.66 7.505zM41 192c1.6-1.134 3.123-2.678 4.031-3.103 1.349-.635 3.41-2.695 3.41-2.695s.524-.364 1.327-.829c1.472-.86 3.886-2.11 5.733-2.263 1.654-.138 7.157-.49 11.483-.76l5.646-.363s5.154-1.816 7.375-.636c1.59.794 3.266 1.403 4.995 1.817v-.472L83.335 180l-17.59 1.5-2.236-1.5-11.182.792-3.319 2.136-2.864.244 1.28.774-6.199 3.996S41.036 189.715 41 192z" opacity=".1"/>
        <path fill="#DFE5EE" d="M39.018 192.945c.842-.25 1.632-.652 2.33-1.184 1.6-1.13 3.124-2.67 4.032-3.095 1.353-.636 3.42-2.696 3.42-2.696s4.218-2.855 7.08-3.091c.78-.066 2.414-.178 4.375-.306l6.494-.414 3.368-.21 2.943-.178s5.17-1.817 7.397-.636c1.595.793 3.276 1.402 5.01 1.816 0 0 .08-5.547.729-7.847.649-2.3 1.509-6.499 1.509-6.499s.73-5.783 1.433-8.399c.703-2.615 3.5-17.197 4.933-18.164 1.433-.966 2.224.727 2.224.727s9.545-.16 9.705-10.619c0 0-4.455-4.439-4.772-5.547-.318-1.108-4.532-5.231-4.532-5.231s-2.388-4.44-5.104-4.52c-1.278-.073-2.559-.033-3.829.12l-2.297 9.311.08 8.799.639.476-1.433 2.14v-1.559s-5.104-4.915-5.885-6.975c-.78-2.06-3.645-5.794-3.645-5.794s-3.26-5.45-3.34-6.412c-.08-.963-2.308-3.498-2.308-3.498-.45-.054-.903-.054-1.353 0-.2.013-.401-.016-.59-.084-1.285-.408-2.652-.485-3.974-.225-2.75.57-6.927 1.61-8.08 2.855-1.75 1.904-4.294 3.727-7.16 11.65l15.43 5.548-1.32 2.503-13.727 13.91s.55 2.481 0 3.342c-.367.574-.756 2.95-1.168 7.128-.729 1.119-.017 2.975-.648 3.778-1.112 1.427-.795 5.943-.795 5.943s-.237 2.14-1.031 2.935c-.795.796-.642 3.72-.642 3.72l-2.067 7.687s-1.91 1.744-1.91 2.543c0 .8-1.51 3.012-1.51 3.012s-2.308 3.792-.011 3.24z"/>
        <path fill="#000" d="M121 198s-5.389 1.824-6.831 4.423C112.727 205.022 121 198 121 198zM118 193c-.17.216-7.434 6.356-6.98 7.84.455 1.484 6.98-7.84 6.98-7.84zM81 197s-7.341 3.997-7.967 5.737C72.406 204.477 81 197 81 197zM80 202s-6.116 3.127-6.939 3.912C72.238 206.696 80 202 80 202zM78 208.56s-3.043 2.793-4.72.599c-1.677-2.194 4.72-.599 4.72-.599zM89 151c-.16.246-10.08 18.552-12.699 19.935C73.682 172.32 89 151 89 151zM88 158c0 .39-9.333 20.755-10.868 20.998C75.596 179.24 88 158 88 158zM52 171s-4.844 9.426-6.73 9.979C43.384 181.532 52 171 52 171zM50 166s-1.752 4-2.815 4C46.12 170 50 166 50 166z" opacity=".1"/>
        <path fill="#000" d="M61.809 139.701s-1.503 6.394-.929 7.262c.574.868-1.004 7.102-1.004 7.102s.134 2.164 1.004 2.873c.87.71 5.91 1.368 7.632 1.765l11.067.808s.18-.797.883-1.047c.53-.645.679-2.2.961-3.28.12-.461.731-.547.835-.431.53.59.947 2.733.61 3.71 2.171-.206 8.147-.84 6.983 3.065-1.788 5.998-6.67 5.46-8.069 5.46l-4.763-1.083s-12.57.878-17.143 0c-4.574-.88-8.25-2.596-9.033-3.443-.784-.848-1.693-1.45-2.91-2.951-1.218-1.502-.286-4.035-.286-4.035s-1.503-19.093.072-21.38c1.575-2.286 12.449-1.262 14.09 5.605z" opacity=".1"/>
        <path fill="#FCC7BE" d="M62.53 136.666s-1.21 6.08-1.036 7.224c.174 1.145-1.12 7.066-1.12 7.066s-.334 1.584.637 2.29c2.922-.501 7.08 1.17 9.002 1.565 2.663 1.041 6.78 1.562 12.354 1.562 0 0 .202-.793.986-1.041.592-.642.758-2.188 1.073-3.264.134-.458.816-.543.932-.428.592.587 1.057 2.719.682 3.692 2.423-.206 9.093-.837 7.794 3.047-.688 2.056-1.93 4.121-3.137 4.921-2.59 1.18-4.847.511-5.87.511l-5.317-1.077s-13.393.447-18.499-.427c-5.106-.874-9.095-1.866-9.97-2.709-.876-.843-2.194-.58-3.553-2.073-1.359-1.494-.766-5.165-.766-5.165s-1.677-18.994.08-21.269c1.759-2.275 13.897-1.256 15.729 5.575z"/>
        <path fill="#000" d="M68 99.075c-.001 1.682.3 3.35.886 4.925-.104-3.692 1.324-7.261 3.944-9.851 2.62-2.59 6.193-3.967 9.863-3.8.679.029 1.484.19 1.758.808.108.332.164.68.167 1.029.204 1.58 1.799 2.569 3.297 3.083 1.498.515 3.167.843 4.254 2.002.993 1.062 1.275 2.587 1.765 3.963.275.842.742 1.608 1.365 2.237 1.73-5.286.198-11.1-3.907-14.834-4.105-3.733-10.013-4.684-15.072-2.426-5.06 2.257-8.32 7.3-8.32 12.864z" opacity=".1"/>
        <path fill="#2F2F2F" d="M93.852 85.58c-1.133-1.557-3.145-2.098-4.893-2.882-4.38-2.01-7.594-5.96-8.699-10.698-1.435 2.135-1.213 4.993.534 6.875-3.178-.218-6.688-.588-8.842-2.96-.49 1.71.976 3.652.175 5.236-.687 1.362-2.56 1.48-3.77 2.405-1.29.97-1.719 2.727-1.799 4.352-.08 1.624.088 3.29-.388 4.844-.365 1.18-1.097 2.264-1.17 3.497-.008.918.192 1.825.585 2.653.903 2.204 2.125 4.26 3.628 6.098-.829-3.995.214-8.153 2.825-11.264 2.61-3.112 6.496-4.827 10.526-4.648.669.03 1.462.193 1.733.807.107.33.163.674.165 1.021.2 1.566 1.773 2.546 3.25 3.057 1.478.51 3.123.84 4.195 1.987.98 1.055 1.258 2.568 1.74 3.933.483 1.366 1.416 2.794 2.838 2.96.326-2.027.655-4.07.453-6.127-.219-2.202-1.682-3.449-2.194-5.366-.555-2.009.498-3.87-.892-5.78z"/>
        <path fill="#000" d="M53.57 124.108l-5.015 3.054s-1.434 4.9-2.555 5.525c0 0 10.034-5.625 17.598 7.313 0 0-.238-1.687.795-2.49 1.033-.803.796-4.259.796-4.259.279-.547.522-1.112.73-1.69.694-1.75-3.048-11.874-12.348-7.453z" opacity=".1"/>
        <path fill="#DFE5EE" d="M53.572 124.106l-5.018 3.05s-1.434 4.897-2.554 5.54c0 0 10.031-5.621 17.592 7.304 0 0-.237-1.685.799-2.487s.796-4.257.796-4.257c.28-.545.524-1.108.73-1.685.707-1.766-3.048-11.88-12.345-7.465z"/>
        <path fill="#000" d="M72.764 80c-.026-1.295-1.166-2.72-.612-4l.096.07c.135 1.323 1.22 2.715.516 3.93zM66.113 86.632c-.077 1.47.055 2.939-.274 4.368.12-1.12.055-2.274.114-3.406.024-.536.093-1.07.208-1.594-.022.224-.04.422-.048.632zM64 96.81c.025-.274.088-.546.187-.81.016.826.254 1.64.699 2.386.98 1.887 2.28 3.658 3.862 5.263.052.454.136.905.252 1.351-1.783-1.72-3.234-3.644-4.305-5.707-.467-.774-.705-1.624-.695-2.483zM81 78c-.375-.017-.759-.038-1.138-.063-.85-1.2-1.082-2.608-.648-3.937-.165 1.472.485 2.929 1.786 4zM71.93 92.737c2.59-3.139 6.404-4.879 10.367-4.728.658.034 1.44.196 1.71.82.103.337.158.687.162 1.04.198 1.592 1.742 2.594 3.2 3.11 1.459.515 3.072.854 4.127 2.025.968 1.073 1.242 2.613 1.717 3.998.475 1.385 1.39 2.838 2.787 3.012l-.151.986c-1.4-.158-2.319-1.611-2.794-3.012-.475-1.4-.75-2.929-1.714-4.002-1.055-1.167-2.675-1.505-4.13-2.021-1.454-.516-3.003-1.506-3.2-3.11-.003-.353-.057-.704-.163-1.039-.28-.625-1.047-.79-1.706-.82-6.325-.31-11.914 4.268-13.142 10.763.313-2.586 1.33-5.023 2.93-7.022z"/>
        <path fill="#3A3768" d="M158 123L158 137 144 135.927 144 123z"/>
        <path fill="#000" d="M158 135.968L158 137 144 136.032 144 135z" opacity=".1"/>
        <path fill="#3A3768" d="M161 138l-21-1.034c0-1.086.92-1.966 2.055-1.966l16.89 1.034c1.135 0 2.055.88 2.055 1.966zM187.763 127l-73.526-2.186c-.593.001-1.163-.234-1.583-.653-.42-.419-.655-.987-.654-1.58V79.23c0-.592.236-1.16.656-1.578.42-.418.988-.653 1.581-.652l73.526 2.186c1.234 0 2.235.997 2.237 2.23v43.35c0 1.234-1.002 2.234-2.237 2.234z"/>
        <path fill="#2A84E9" d="M189 124L114 121.827 114 83 189 85.173z"/>
        <circle cx="150.5" cy="80.5" r="1" fill="#FFF"/>
        <path fill="#000" d="M158 125.987L144 125.769 144 126.231 158 126.231zM132.714 140L151 141.234 147.104 147 127 144.789z" opacity=".1"/>
        <path fill="#3A3768" d="M132.714 139L151 140.234 147.104 146 127 143.789z"/>
        <path fill="#D5E1F4" d="M133.001 139L149 140.055 145.593 145 128 143.103z"/>
        <path fill="#FFF" d="M144 97.901V94h7.093c2.271 0 4.112 1.806 4.112 4.034 0 1.185-.52 2.25-1.35 2.989 2.88.229 5.145 2.595 5.145 5.48 0 3.036-2.508 5.497-5.602 5.497H144v-3.99h1.988c2.845 0 5.15-2.263 5.15-5.054 0-2.792-2.305-5.055-5.15-5.055H144z"/>
        <path fill="#FFF" d="M145.87 107.731h-1.583c-.11 0-.197-.088-.197-.198 0-.109.088-.197.197-.197h1.583c.704.002 1.398-.165 2.023-.488.097-.05.216-.011.266.086.05.098.01.217-.086.267-.682.35-1.437.533-2.203.53zM148.67 106.791c-.088.003-.166-.052-.194-.135-.027-.083.003-.174.074-.225.274-.207.523-.446.743-.71 1.138-1.375 1.352-3.297.545-4.89-.59-1.156-1.65-1.998-2.906-2.307-.132-.033-.269-.059-.401-.08-.22-.032-.44-.048-.66-.048h-1.584c-.11 0-.197-.089-.197-.198 0-.11.088-.198.197-.198h1.583c.24 0 .48.018.717.053.147.022.294.051.436.09.46.111.9.29 1.307.529.794.47 1.438 1.156 1.86 1.979.35.685.533 1.444.53 2.215.002 1.137-.395 2.239-1.12 3.112-.239.288-.51.548-.807.774-.035.027-.079.04-.124.04z"/>
        <path fill="#FFF" d="M145.87 106.891h-1.583c-.104-.007-.185-.094-.185-.198 0-.105.08-.192.185-.199h1.583c.823.004 1.621-.277 2.26-.797.627-.5 1.068-1.197 1.255-1.979.163-.672.132-1.376-.09-2.032-.026-.067-.013-.144.034-.2.047-.055.12-.08.191-.065.071.015.128.068.149.138.142.42.215.86.215 1.303 0 .32-.038.639-.112.95-.073.301-.18.593-.32.869-.26.513-.626.965-1.074 1.325-.712.572-1.596.884-2.508.885zM148.725 100.527c-.056 0-.11-.024-.147-.067-.177-.2-.375-.382-.59-.54-.616-.448-1.357-.688-2.118-.687h-1.583c-.11 0-.197-.088-.197-.198 0-.109.088-.198.197-.198h1.583c.844-.002 1.666.265 2.349.763.239.174.458.373.654.595.051.058.064.141.032.213-.032.07-.102.116-.18.116v.003z"/>
        <path fill="#FFF" d="M145.87 106.05h-1.583c-.11 0-.197-.09-.197-.199 0-.109.088-.198.197-.198h1.583c.109 0 .197.089.197.198 0 .11-.088.198-.197.198zM146.674 105.94c-.099 0-.183-.073-.196-.171-.014-.098.047-.192.142-.218.296-.083.575-.215.827-.39.938-.65 1.386-1.81 1.129-2.924-.257-1.115-1.167-1.96-2.294-2.13-.071-.007-.133-.054-.16-.12-.028-.068-.017-.145.029-.2.045-.057.118-.084.189-.07.333.049.657.152.958.304.484.246.898.612 1.201 1.064.186.275.328.579.42.9.082.286.123.583.123.882 0 .46-.1.914-.293 1.33-.39.848-1.13 1.482-2.025 1.735-.016.005-.033.007-.05.007zM145.123 100.078h-.836c-.11 0-.197-.089-.197-.198 0-.11.088-.198.197-.198h.836c.109 0 .197.089.197.198 0 .11-.088.198-.197.198zM145 105.185h-.717c-.109 0-.197-.089-.197-.198 0-.11.088-.198.197-.198H145c.109 0 .197.089.197.198 0 .11-.088.198-.197.198z"/>
        <path fill="#FFF" d="M146.01 105.18c-.109.004-.2-.082-.203-.191-.004-.11.081-.201.19-.205 1.008-.065 1.792-.905 1.793-1.918 0-.11.088-.198.197-.198.109 0 .197.088.197.198.001 1.223-.945 2.236-2.162 2.313l-.012.001zM147.866 102.366c-.084 0-.159-.054-.187-.134-.089-.26-.233-.496-.423-.694-.148-.156-.322-.287-.514-.385-.27-.14-.569-.211-.872-.21h-1.583c-.11 0-.197-.09-.197-.198 0-.11.088-.198.197-.198h1.583c.632 0 1.236.26 1.672.72.228.238.402.523.51.836.018.05.015.104-.008.151s-.063.084-.113.1c-.02.008-.043.012-.065.012zM145.87 104.407h-1.583c-.11 0-.197-.089-.197-.198 0-.11.088-.198.197-.198h1.583c.109 0 .197.088.197.198 0 .109-.088.198-.197.198z"/>
        <path fill="#FFF" d="M146.688 104.124c-.084 0-.158-.054-.185-.133-.028-.08-.002-.168.064-.22.28-.216.445-.55.444-.905 0-.304-.12-.596-.334-.81-.214-.215-.504-.336-.807-.335-.109 0-.197-.09-.197-.198 0-.11.088-.198.197-.198.477 0 .927.224 1.218.605.29.38.388.874.265 1.337-.087.323-.275.61-.538.816-.036.028-.08.043-.127.041zM145.27 101.72h-.983c-.11 0-.197-.088-.197-.197 0-.11.088-.198.197-.198h.985c.07 0 .136.037.171.099.035.06.035.136 0 .198-.035.06-.1.099-.17.099h-.002z"/>
        <path fill="#FFF" d="M145.545 102.678c-.43-.002-.859-.032-1.284-.09-.106-.017-.178-.116-.164-.222.014-.106.11-.182.216-.17.596.083 1.2.103 1.8.06.072-.006.14.026.182.084.041.059.048.135.018.2-.03.065-.091.109-.162.115-.015.002-.24.023-.606.023zM144.287 103.551c-.1-.001-.183-.077-.194-.176-.01-.1.054-.191.15-.214.497-.12 1.009-.165 1.519-.133.108.01.187.108.176.217-.011.109-.108.188-.217.177-.467-.026-.936.016-1.391.125-.014.003-.029.004-.043.004z"/>
    </g>
</svg>
